G04*
G04 #@! TF.GenerationSoftware,Altium Limited,Altium Designer,24.9.1 (31)*
G04*
G04 Layer_Physical_Order=1*
G04 Layer_Color=255*
%FSLAX25Y25*%
%MOIN*%
G70*
G04*
G04 #@! TF.SameCoordinates,E493A569-BD46-4AD9-B400-18CC68C2C09C*
G04*
G04*
G04 #@! TF.FilePolarity,Positive*
G04*
G01*
G75*
%ADD11C,0.01000*%
%ADD17R,0.02165X0.02362*%
%ADD18R,0.11811X0.06693*%
%ADD19R,0.06693X0.11811*%
%ADD20R,0.17953X0.03937*%
%ADD21R,0.17953X0.03347*%
%ADD22R,0.01968X0.01772*%
%ADD23R,0.02047X0.02047*%
%ADD24R,0.04016X0.02520*%
%ADD25R,0.02953X0.01181*%
%ADD26R,0.03347X0.06496*%
%ADD27R,0.04900X0.03000*%
%ADD28R,0.01968X0.01968*%
%ADD29R,0.02047X0.02047*%
%ADD30R,0.01968X0.02165*%
%ADD41C,0.06000*%
%ADD44C,0.00500*%
%ADD45C,0.01700*%
%ADD46C,0.02050*%
%ADD47C,0.01500*%
%ADD48C,0.01200*%
%ADD49C,0.01750*%
G04:AMPARAMS|DCode=50|XSize=62.99mil|YSize=62.99mil|CornerRadius=15.75mil|HoleSize=0mil|Usage=FLASHONLY|Rotation=180.000|XOffset=0mil|YOffset=0mil|HoleType=Round|Shape=RoundedRectangle|*
%AMROUNDEDRECTD50*
21,1,0.06299,0.03150,0,0,180.0*
21,1,0.03150,0.06299,0,0,180.0*
1,1,0.03150,-0.01575,0.01575*
1,1,0.03150,0.01575,0.01575*
1,1,0.03150,0.01575,-0.01575*
1,1,0.03150,-0.01575,-0.01575*
%
%ADD50ROUNDEDRECTD50*%
%ADD51C,0.06299*%
%ADD52C,0.02500*%
%ADD53C,0.05000*%
G36*
X200000Y41284D02*
X193500D01*
Y38315D01*
X193000D01*
Y37815D01*
X183024D01*
Y36748D01*
X181000D01*
X180610Y36670D01*
X180279Y36449D01*
X180058Y36119D01*
X179980Y35728D01*
Y27554D01*
X177158Y24732D01*
X176757Y25000D01*
X175000D01*
Y23243D01*
X175268Y22842D01*
X172678Y20252D01*
X170632D01*
X170425Y20293D01*
X170219Y20252D01*
X168402D01*
Y20076D01*
X166008D01*
Y20240D01*
X159992D01*
Y20065D01*
X159500D01*
X158731Y19912D01*
X157000D01*
X156863Y19884D01*
X156476Y20202D01*
Y21661D01*
X154500D01*
Y20071D01*
X153500D01*
Y21661D01*
X151524D01*
Y21216D01*
X150563D01*
Y16969D01*
Y12720D01*
X151524D01*
Y12276D01*
X153500D01*
Y13866D01*
X154500D01*
Y12276D01*
X156476D01*
Y12276D01*
X156971Y12262D01*
Y12173D01*
X157087Y11588D01*
X157419Y11092D01*
X160417Y8093D01*
Y5992D01*
Y5327D01*
X162500D01*
X164583D01*
Y5992D01*
Y10354D01*
X163799D01*
X163699Y10854D01*
X164275Y11092D01*
X164908Y11726D01*
X165228Y12500D01*
X163000D01*
Y13500D01*
X165228D01*
X164908Y14275D01*
X164275Y14908D01*
X163448Y15250D01*
X163519Y15721D01*
X166008D01*
Y15947D01*
X170209D01*
X170999Y16104D01*
X171149Y16205D01*
X173368D01*
X173575Y16164D01*
X173781Y16205D01*
X175476D01*
X175598Y16205D01*
X175976Y15908D01*
Y15645D01*
X176318Y14818D01*
X176951Y14185D01*
X177726Y13864D01*
Y16093D01*
Y18321D01*
X176951Y18000D01*
X176636Y18369D01*
X179518Y21252D01*
X179980Y21061D01*
Y20228D01*
X180058Y19838D01*
X180279Y19507D01*
X180610Y19286D01*
X181000Y19209D01*
X183024D01*
Y18185D01*
X193000D01*
Y17685D01*
X193500D01*
Y14717D01*
X200000D01*
Y0D01*
X0D01*
Y200000D01*
X200000D01*
Y41284D01*
D02*
G37*
%LPC*%
G36*
X113448Y193250D02*
X112552D01*
X111725Y192908D01*
X111092Y192274D01*
X110750Y191448D01*
Y190552D01*
X111092Y189725D01*
X111725Y189093D01*
X112552Y188750D01*
X113448D01*
X114275Y189093D01*
X114908Y189725D01*
X115250Y190552D01*
Y191448D01*
X114908Y192274D01*
X114275Y192908D01*
X113448Y193250D01*
D02*
G37*
G36*
X9046Y195942D02*
X7954D01*
X6898Y195659D01*
X5952Y195113D01*
X5179Y194340D01*
X4633Y193394D01*
X4350Y192339D01*
Y191246D01*
X4633Y190191D01*
X5179Y189244D01*
X5952Y188472D01*
X6898Y187926D01*
X7954Y187643D01*
X9046D01*
X10102Y187926D01*
X11048Y188472D01*
X11821Y189244D01*
X12367Y190191D01*
X12650Y191246D01*
Y192339D01*
X12367Y193394D01*
X11821Y194340D01*
X11048Y195113D01*
X10102Y195659D01*
X9046Y195942D01*
D02*
G37*
G36*
X20075Y195964D02*
X16925D01*
X16253Y195876D01*
X15627Y195616D01*
X15089Y195203D01*
X14676Y194666D01*
X14417Y194039D01*
X14328Y193367D01*
Y190217D01*
X14417Y189545D01*
X14676Y188919D01*
X15089Y188381D01*
X15627Y187968D01*
X16253Y187709D01*
X16925Y187620D01*
X20075D01*
X20747Y187709D01*
X21373Y187968D01*
X21911Y188381D01*
X22324Y188919D01*
X22583Y189545D01*
X22672Y190217D01*
Y193367D01*
X22583Y194039D01*
X22324Y194666D01*
X21911Y195203D01*
X21373Y195616D01*
X20747Y195876D01*
X20075Y195964D01*
D02*
G37*
G36*
X188027Y195500D02*
X186973D01*
X185956Y195227D01*
X185044Y194701D01*
X184299Y193956D01*
X183773Y193044D01*
X183500Y192027D01*
Y190973D01*
X183773Y189956D01*
X184299Y189044D01*
X185044Y188299D01*
X185956Y187773D01*
X186973Y187500D01*
X188027D01*
X189044Y187773D01*
X189956Y188299D01*
X190701Y189044D01*
X191227Y189956D01*
X191500Y190973D01*
Y192027D01*
X191227Y193044D01*
X190701Y193956D01*
X189956Y194701D01*
X189044Y195227D01*
X188027Y195500D01*
D02*
G37*
G36*
X178027D02*
X176973D01*
X175956Y195227D01*
X175044Y194701D01*
X174299Y193956D01*
X173773Y193044D01*
X173500Y192027D01*
Y190973D01*
X173773Y189956D01*
X174299Y189044D01*
X175044Y188299D01*
X175956Y187773D01*
X176973Y187500D01*
X178027D01*
X179044Y187773D01*
X179956Y188299D01*
X180701Y189044D01*
X181227Y189956D01*
X181500Y190973D01*
Y192027D01*
X181227Y193044D01*
X180701Y193956D01*
X179956Y194701D01*
X179044Y195227D01*
X178027Y195500D01*
D02*
G37*
G36*
X168027D02*
X166973D01*
X165956Y195227D01*
X165044Y194701D01*
X164299Y193956D01*
X163773Y193044D01*
X163500Y192027D01*
Y190973D01*
X163773Y189956D01*
X164299Y189044D01*
X165044Y188299D01*
X165956Y187773D01*
X166973Y187500D01*
X168027D01*
X169044Y187773D01*
X169956Y188299D01*
X170701Y189044D01*
X171227Y189956D01*
X171500Y190973D01*
Y192027D01*
X171227Y193044D01*
X170701Y193956D01*
X169956Y194701D01*
X169044Y195227D01*
X168027Y195500D01*
D02*
G37*
G36*
X158027D02*
X156973D01*
X155956Y195227D01*
X155044Y194701D01*
X154299Y193956D01*
X153773Y193044D01*
X153500Y192027D01*
Y190973D01*
X153773Y189956D01*
X154299Y189044D01*
X155044Y188299D01*
X155956Y187773D01*
X156973Y187500D01*
X158027D01*
X159044Y187773D01*
X159956Y188299D01*
X160701Y189044D01*
X161227Y189956D01*
X161500Y190973D01*
Y192027D01*
X161227Y193044D01*
X160701Y193956D01*
X159956Y194701D01*
X159044Y195227D01*
X158027Y195500D01*
D02*
G37*
G36*
X148027D02*
X146973D01*
X145956Y195227D01*
X145044Y194701D01*
X144299Y193956D01*
X143773Y193044D01*
X143500Y192027D01*
Y190973D01*
X143773Y189956D01*
X144299Y189044D01*
X145044Y188299D01*
X145956Y187773D01*
X146973Y187500D01*
X148027D01*
X149044Y187773D01*
X149956Y188299D01*
X150701Y189044D01*
X151227Y189956D01*
X151500Y190973D01*
Y192027D01*
X151227Y193044D01*
X150701Y193956D01*
X149956Y194701D01*
X149044Y195227D01*
X148027Y195500D01*
D02*
G37*
G36*
X138027D02*
X136973D01*
X135956Y195227D01*
X135044Y194701D01*
X134299Y193956D01*
X133773Y193044D01*
X133500Y192027D01*
Y190973D01*
X133773Y189956D01*
X134299Y189044D01*
X135044Y188299D01*
X135956Y187773D01*
X136973Y187500D01*
X138027D01*
X139044Y187773D01*
X139956Y188299D01*
X140701Y189044D01*
X141227Y189956D01*
X141500Y190973D01*
Y192027D01*
X141227Y193044D01*
X140701Y193956D01*
X139956Y194701D01*
X139044Y195227D01*
X138027Y195500D01*
D02*
G37*
G36*
X113448Y187250D02*
X112552D01*
X111725Y186907D01*
X111092Y186275D01*
X110750Y185448D01*
Y184552D01*
X111092Y183726D01*
X111725Y183092D01*
X112552Y182750D01*
X113448D01*
X114275Y183092D01*
X114908Y183726D01*
X115250Y184552D01*
Y185448D01*
X114908Y186275D01*
X114275Y186907D01*
X113448Y187250D01*
D02*
G37*
G36*
X55948Y184250D02*
X55052D01*
X54225Y183907D01*
X53592Y183274D01*
X53250Y182448D01*
Y181552D01*
X53592Y180726D01*
X54225Y180093D01*
X55052Y179750D01*
X55948D01*
X56774Y180093D01*
X57407Y180726D01*
X57750Y181552D01*
Y182448D01*
X57407Y183274D01*
X56774Y183907D01*
X55948Y184250D01*
D02*
G37*
G36*
X20846Y182042D02*
X19951D01*
X19124Y181700D01*
X18491Y181067D01*
X18149Y180240D01*
Y179345D01*
X18491Y178518D01*
X19124Y177885D01*
X19951Y177542D01*
X20846D01*
X21673Y177885D01*
X22306Y178518D01*
X22649Y179345D01*
Y180240D01*
X22306Y181067D01*
X21673Y181700D01*
X20846Y182042D01*
D02*
G37*
G36*
X113448Y180750D02*
X112552D01*
X111725Y180408D01*
X111092Y179774D01*
X110750Y178948D01*
Y178052D01*
X111092Y177225D01*
X111725Y176593D01*
X112552Y176250D01*
X113448D01*
X114275Y176593D01*
X114908Y177225D01*
X115250Y178052D01*
Y178948D01*
X114908Y179774D01*
X114275Y180408D01*
X113448Y180750D01*
D02*
G37*
G36*
Y174250D02*
X112552D01*
X111725Y173907D01*
X111092Y173275D01*
X110750Y172448D01*
Y171552D01*
X111092Y170726D01*
X111725Y170092D01*
X112552Y169750D01*
X113448D01*
X114275Y170092D01*
X114908Y170726D01*
X115250Y171552D01*
Y172448D01*
X114908Y173275D01*
X114275Y173907D01*
X113448Y174250D01*
D02*
G37*
G36*
X28448Y168250D02*
X27552D01*
X26726Y167908D01*
X26092Y167274D01*
X25750Y166448D01*
Y165552D01*
X26092Y164725D01*
X26726Y164093D01*
X27552Y163750D01*
X28448D01*
X29274Y164093D01*
X29908Y164725D01*
X30250Y165552D01*
Y166448D01*
X29908Y167274D01*
X29274Y167908D01*
X28448Y168250D01*
D02*
G37*
G36*
X115950Y167350D02*
X109050D01*
Y166729D01*
X107200D01*
X106615Y166613D01*
X106119Y166281D01*
X103587Y163750D01*
X103052D01*
X102225Y163408D01*
X101593Y162775D01*
X101250Y161948D01*
Y161052D01*
X101593Y160225D01*
X102225Y159592D01*
X103052Y159250D01*
X103948D01*
X104774Y159592D01*
X105408Y160225D01*
X105750Y161052D01*
Y161587D01*
X107834Y163671D01*
X109050D01*
Y162350D01*
X115950D01*
Y167350D01*
D02*
G37*
G36*
X19948Y161750D02*
X19052D01*
X18225Y161407D01*
X17593Y160775D01*
X17250Y159948D01*
Y159052D01*
X17593Y158226D01*
X18225Y157592D01*
X19052Y157250D01*
X19948D01*
X20775Y157592D01*
X21407Y158226D01*
X21750Y159052D01*
Y159948D01*
X21407Y160775D01*
X20775Y161407D01*
X19948Y161750D01*
D02*
G37*
G36*
X83448Y157750D02*
X82552D01*
X81726Y157407D01*
X81093Y156774D01*
X80750Y155948D01*
Y155052D01*
X81093Y154226D01*
X81726Y153593D01*
X82552Y153250D01*
X83448D01*
X84275Y153593D01*
X84908Y154226D01*
X85250Y155052D01*
Y155948D01*
X84908Y156774D01*
X84275Y157407D01*
X83448Y157750D01*
D02*
G37*
G36*
X115950Y159650D02*
X109050D01*
Y154650D01*
X112447D01*
Y153386D01*
X109039D01*
Y153029D01*
X104153D01*
X103774Y153408D01*
X102948Y153750D01*
X102052D01*
X101225Y153408D01*
X100593Y152775D01*
X100250Y151948D01*
Y151052D01*
X100593Y150225D01*
X101225Y149592D01*
X102052Y149250D01*
X102948D01*
X103774Y149592D01*
X104153Y149971D01*
X109039D01*
Y149614D01*
X115961D01*
Y153386D01*
X115506D01*
Y154650D01*
X115950D01*
Y159650D01*
D02*
G37*
G36*
X37948Y156250D02*
X37052D01*
X36226Y155907D01*
X35592Y155274D01*
X35250Y154448D01*
Y153552D01*
X35592Y152726D01*
X36226Y152093D01*
X37052Y151750D01*
X37948D01*
X38774Y152093D01*
X39408Y152726D01*
X39750Y153552D01*
Y154448D01*
X39408Y155274D01*
X38774Y155907D01*
X37948Y156250D01*
D02*
G37*
G36*
X7447Y159250D02*
X6553D01*
X5725Y158907D01*
X5093Y158274D01*
X4750Y157448D01*
Y156552D01*
X5093Y155726D01*
X5471Y155347D01*
Y153354D01*
X4917D01*
Y148992D01*
Y148327D01*
X7000D01*
X9083D01*
Y148992D01*
Y153354D01*
X8529D01*
Y155347D01*
X8907Y155726D01*
X9250Y156552D01*
Y157448D01*
X8907Y158274D01*
X8275Y158907D01*
X7447Y159250D01*
D02*
G37*
G36*
X181500Y176029D02*
X143595D01*
X143009Y175913D01*
X142513Y175581D01*
X137966Y171034D01*
X137634Y170538D01*
X137518Y169953D01*
Y167350D01*
X135050D01*
Y162350D01*
X141950D01*
Y167350D01*
X140577D01*
Y169319D01*
X144228Y172971D01*
X153820D01*
X153868Y172908D01*
X154005Y172471D01*
X150466Y168931D01*
X150134Y168435D01*
X150018Y167850D01*
Y167350D01*
X148097D01*
Y162350D01*
X154997D01*
Y167350D01*
X153863D01*
X153672Y167812D01*
X155831Y169971D01*
X163287D01*
X163403Y169691D01*
X163449Y169471D01*
X163134Y169000D01*
X163018Y168414D01*
Y167350D01*
X161097D01*
Y162350D01*
X167997D01*
Y167350D01*
X168447Y167471D01*
X173647D01*
X174097Y167350D01*
Y162350D01*
X177968D01*
Y160564D01*
X178050Y160150D01*
X177749Y159650D01*
X174097D01*
Y154650D01*
X175994D01*
Y152386D01*
X175539D01*
Y148614D01*
X178947D01*
Y148110D01*
X175866Y145029D01*
X167846D01*
X167654Y145491D01*
X168558Y146395D01*
X168889Y146891D01*
X169006Y147476D01*
Y148614D01*
X169461D01*
Y152386D01*
X166053D01*
Y154650D01*
X167997D01*
Y159650D01*
X161097D01*
Y154650D01*
X162994D01*
Y152386D01*
X162539D01*
Y148614D01*
X165947D01*
Y148110D01*
X163587Y145750D01*
X163052D01*
X162225Y145407D01*
X161847Y145029D01*
X159634D01*
X156340Y148323D01*
X156461Y148614D01*
X156461D01*
Y152386D01*
X153053D01*
Y154650D01*
X154997D01*
Y159650D01*
X148097D01*
Y154650D01*
X149994D01*
Y152386D01*
X149539D01*
Y148614D01*
X152971D01*
Y148000D01*
X153087Y147415D01*
X153419Y146919D01*
X157919Y142419D01*
X158415Y142087D01*
X159000Y141971D01*
X161847D01*
X162225Y141593D01*
X163052Y141250D01*
X163948D01*
X164775Y141593D01*
X165153Y141971D01*
X176500D01*
X177085Y142087D01*
X177581Y142419D01*
X180469Y145306D01*
X180931Y145115D01*
Y126144D01*
X174462Y119675D01*
X174000Y119866D01*
Y119961D01*
X173761Y120851D01*
X173301Y121649D01*
X172649Y122301D01*
X171851Y122761D01*
X170961Y123000D01*
X170039D01*
X169149Y122761D01*
X168351Y122301D01*
X167699Y121649D01*
X167238Y120851D01*
X167000Y119961D01*
Y119039D01*
X167238Y118149D01*
X167379Y117905D01*
X167031Y117508D01*
X166448Y117750D01*
X165552D01*
X164725Y117408D01*
X164093Y116774D01*
X163750Y115948D01*
Y115052D01*
X164093Y114225D01*
X164606Y113712D01*
X164530Y113490D01*
X164361Y113250D01*
X163552D01*
X162725Y112908D01*
X162092Y112275D01*
X162092Y112275D01*
X162031Y112173D01*
X161850Y111906D01*
X159033D01*
Y112993D01*
X159274Y113093D01*
X159907Y113725D01*
X160228Y114500D01*
X155772D01*
X155974Y114010D01*
Y111906D01*
X153157D01*
Y105500D01*
X157504D01*
X161850D01*
Y106369D01*
X162350Y106521D01*
X162419Y106419D01*
X165419Y103419D01*
X165915Y103087D01*
X166500Y102971D01*
X173000D01*
X173585Y103087D01*
X174081Y103419D01*
X195081Y124419D01*
X195413Y124915D01*
X195529Y125500D01*
Y162000D01*
X195413Y162585D01*
X195081Y163081D01*
X182581Y175581D01*
X182085Y175913D01*
X181500Y176029D01*
D02*
G37*
G36*
X9083Y147327D02*
X7000D01*
X4917D01*
Y145646D01*
X5114D01*
Y142296D01*
X5093Y142274D01*
X4772Y141500D01*
X9228D01*
X8907Y142274D01*
X8886Y142296D01*
Y145646D01*
X9083D01*
Y147327D01*
D02*
G37*
G36*
X128950Y167350D02*
X122050D01*
Y166529D01*
X121586D01*
X121001Y166413D01*
X120504Y166081D01*
X119919Y165496D01*
X119587Y164999D01*
X119471Y164414D01*
Y147365D01*
X118971Y147033D01*
X118448Y147250D01*
X117552D01*
X116726Y146907D01*
X116093Y146274D01*
X115750Y145448D01*
Y144552D01*
X116093Y143726D01*
X116726Y143093D01*
X117552Y142750D01*
X118448D01*
X118971Y142967D01*
X119471Y142635D01*
Y127086D01*
X119587Y126500D01*
X119919Y126004D01*
X120504Y125419D01*
X121001Y125087D01*
X121586Y124971D01*
X126847D01*
X127225Y124592D01*
X128052Y124250D01*
X128948D01*
X129774Y124592D01*
X130408Y125225D01*
X130750Y126052D01*
Y126948D01*
X130408Y127775D01*
X129774Y128408D01*
X128948Y128750D01*
X128052D01*
X127225Y128408D01*
X126847Y128029D01*
X122529D01*
Y154650D01*
X124994D01*
Y152386D01*
X124539D01*
Y148614D01*
X127947D01*
Y147618D01*
X128063Y147032D01*
X128395Y146536D01*
X131750Y143181D01*
Y143052D01*
X132092Y142226D01*
X132726Y141593D01*
X133552Y141250D01*
X134448D01*
X135275Y141593D01*
X135653Y141971D01*
X139500D01*
X140085Y142087D01*
X140581Y142419D01*
X143081Y144919D01*
X143413Y145415D01*
X143529Y146000D01*
Y148614D01*
X143984D01*
Y152386D01*
X140577D01*
Y154650D01*
X141950D01*
Y159650D01*
X135050D01*
Y154650D01*
X137518D01*
Y152386D01*
X137063D01*
Y148614D01*
X140471D01*
Y146634D01*
X138866Y145029D01*
X135653D01*
X135275Y145407D01*
X134448Y145750D01*
X133552D01*
X133520Y145737D01*
X131143Y148114D01*
X131337Y148614D01*
X131461D01*
Y152386D01*
X128053D01*
Y154650D01*
X128950D01*
Y159650D01*
X122529D01*
Y162350D01*
X128950D01*
Y167350D01*
D02*
G37*
G36*
X40482Y145542D02*
X39587D01*
X38760Y145200D01*
X38127Y144567D01*
X37784Y143740D01*
Y142845D01*
X38127Y142018D01*
X38760Y141385D01*
X39587Y141042D01*
X40482D01*
X41309Y141385D01*
X41942Y142018D01*
X42284Y142845D01*
Y143740D01*
X41942Y144567D01*
X41309Y145200D01*
X40482Y145542D01*
D02*
G37*
G36*
X9228Y140500D02*
X7500D01*
Y138772D01*
X8275Y139093D01*
X8907Y139725D01*
X9228Y140500D01*
D02*
G37*
G36*
X6500D02*
X4772D01*
X5093Y139725D01*
X5725Y139093D01*
X6500Y138772D01*
Y140500D01*
D02*
G37*
G36*
X94995Y142541D02*
X94100D01*
X93273Y142199D01*
X92640Y141566D01*
X92298Y140739D01*
Y139843D01*
X92640Y139016D01*
X93273Y138384D01*
X94100Y138041D01*
X94995D01*
X95822Y138384D01*
X96455Y139016D01*
X96798Y139843D01*
Y140739D01*
X96455Y141566D01*
X95822Y142199D01*
X94995Y142541D01*
D02*
G37*
G36*
X107948Y142093D02*
X107052D01*
X106226Y141751D01*
X105593Y141118D01*
X105250Y140291D01*
Y139396D01*
X105593Y138569D01*
X106226Y137936D01*
X107052Y137593D01*
X107948D01*
X108774Y137936D01*
X109407Y138569D01*
X109750Y139396D01*
Y140291D01*
X109407Y141118D01*
X108774Y141751D01*
X107948Y142093D01*
D02*
G37*
G36*
X82948Y140250D02*
X82052D01*
X81226Y139908D01*
X80593Y139275D01*
X80250Y138448D01*
Y137552D01*
X80593Y136725D01*
X81226Y136092D01*
X82052Y135750D01*
X82948D01*
X83775Y136092D01*
X84408Y136725D01*
X84750Y137552D01*
Y138448D01*
X84408Y139275D01*
X83775Y139908D01*
X82948Y140250D01*
D02*
G37*
G36*
X90448Y137042D02*
X89552D01*
X88726Y136700D01*
X88092Y136067D01*
X87750Y135240D01*
Y134345D01*
X88092Y133518D01*
X88726Y132885D01*
X89552Y132542D01*
X90448D01*
X91274Y132885D01*
X91908Y133518D01*
X92250Y134345D01*
Y135240D01*
X91908Y136067D01*
X91274Y136700D01*
X90448Y137042D01*
D02*
G37*
G36*
X33948Y136250D02*
X33052D01*
X32225Y135907D01*
X31593Y135275D01*
X31250Y134448D01*
Y133552D01*
X31593Y132726D01*
X32225Y132092D01*
X33052Y131750D01*
X33948D01*
X34775Y132092D01*
X35408Y132726D01*
X35750Y133552D01*
Y134448D01*
X35408Y135275D01*
X34775Y135907D01*
X33948Y136250D01*
D02*
G37*
G36*
X129461Y137500D02*
X128539D01*
X127649Y137261D01*
X126851Y136801D01*
X126199Y136149D01*
X125739Y135351D01*
X125500Y134461D01*
Y133539D01*
X125739Y132649D01*
X126199Y131851D01*
X126851Y131199D01*
X127649Y130738D01*
X128539Y130500D01*
X129461D01*
X130351Y130738D01*
X131149Y131199D01*
X131801Y131851D01*
X132262Y132649D01*
X132500Y133539D01*
Y134461D01*
X132262Y135351D01*
X131801Y136149D01*
X131149Y136801D01*
X130351Y137261D01*
X129461Y137500D01*
D02*
G37*
G36*
X65647Y134542D02*
X64752D01*
X63925Y134200D01*
X63292Y133567D01*
X62949Y132740D01*
Y131845D01*
X63292Y131018D01*
X63925Y130385D01*
X64752Y130042D01*
X65647D01*
X66474Y130385D01*
X67107Y131018D01*
X67449Y131845D01*
Y132740D01*
X67107Y133567D01*
X66474Y134200D01*
X65647Y134542D01*
D02*
G37*
G36*
X11947Y134250D02*
X11052D01*
X10226Y133907D01*
X9593Y133274D01*
X9250Y132448D01*
Y131552D01*
X9593Y130726D01*
X10226Y130093D01*
X11052Y129750D01*
X11947D01*
X12775Y130093D01*
X13408Y130726D01*
X13750Y131552D01*
Y132448D01*
X13408Y133274D01*
X12775Y133907D01*
X11947Y134250D01*
D02*
G37*
G36*
X43448Y131250D02*
X42552D01*
X41726Y130907D01*
X41093Y130274D01*
X40750Y129448D01*
Y128552D01*
X41093Y127726D01*
X41726Y127093D01*
X42552Y126750D01*
X43448D01*
X44275Y127093D01*
X44908Y127726D01*
X45250Y128552D01*
Y129448D01*
X44908Y130274D01*
X44275Y130907D01*
X43448Y131250D01*
D02*
G37*
G36*
X150948Y141250D02*
X150052D01*
X149225Y140908D01*
X148592Y140275D01*
X148250Y139448D01*
Y138913D01*
X146423Y137085D01*
X146091Y136589D01*
X145975Y136004D01*
Y111906D01*
X143157D01*
Y99020D01*
X141850D01*
Y104500D01*
X137504D01*
X133158D01*
Y99020D01*
X131811D01*
Y104500D01*
X127465D01*
X123118D01*
Y98094D01*
X122719Y97850D01*
X119500D01*
Y93504D01*
Y89157D01*
X124980D01*
Y87850D01*
X112094D01*
Y81393D01*
X111594Y81186D01*
X111123Y81657D01*
X110296Y82000D01*
X109400D01*
X108574Y81657D01*
X107941Y81024D01*
X107598Y80198D01*
Y79302D01*
X107941Y78475D01*
X108574Y77842D01*
X109400Y77500D01*
X110296D01*
X111123Y77842D01*
X111756Y78475D01*
X111861Y78730D01*
X112094Y79158D01*
Y79158D01*
X112094Y79158D01*
X124980D01*
Y77850D01*
X119500D01*
Y73504D01*
Y69157D01*
X124980D01*
Y67850D01*
X119500D01*
Y63504D01*
Y59158D01*
X125906D01*
Y60903D01*
X126000Y60980D01*
X127134D01*
Y55500D01*
X131480D01*
X135827D01*
Y60980D01*
X137134D01*
Y48094D01*
X139416D01*
Y47260D01*
X135036Y42881D01*
X134679Y43225D01*
X135000Y44000D01*
X133272D01*
Y42272D01*
X134046Y42592D01*
X134391Y42235D01*
X129042Y36886D01*
X128370D01*
X128337Y36908D01*
X127916Y36991D01*
X127749Y37025D01*
X127751Y37049D01*
X127751D01*
X127795Y37495D01*
X127891Y37525D01*
X128355D01*
X129182Y37867D01*
X129815Y38500D01*
X130136Y39274D01*
X125679D01*
X126000Y38500D01*
X126633Y37867D01*
X126968Y37728D01*
X127227Y37144D01*
X127216Y37085D01*
X127172Y36990D01*
X126757Y36908D01*
X126725Y36886D01*
X125307D01*
Y33114D01*
X125459D01*
Y31886D01*
X124791D01*
Y30000D01*
Y28114D01*
X125459D01*
Y25024D01*
X125563Y24501D01*
Y23114D01*
X126725D01*
X126757Y23092D01*
X127547Y22935D01*
X127898Y23005D01*
X128398Y22595D01*
Y18034D01*
X128402Y18015D01*
Y15972D01*
X130444D01*
X130463Y15969D01*
X130481Y15972D01*
X133368D01*
X133575Y15931D01*
X138268D01*
X139058Y16089D01*
X139216Y15649D01*
X139224Y15614D01*
X138725Y15407D01*
X138093Y14774D01*
X137772Y14000D01*
X142228D01*
X141908Y14774D01*
X141274Y15407D01*
X140777Y15614D01*
X140876Y16114D01*
X141500D01*
X142222Y16257D01*
X142388Y16369D01*
X143650D01*
Y14366D01*
X146126D01*
Y13866D01*
X146626D01*
Y12276D01*
X148602D01*
Y12720D01*
X149563D01*
Y16969D01*
Y21216D01*
X148602D01*
Y21661D01*
X146331D01*
X146126Y21702D01*
X143965D01*
X143065Y22603D01*
Y24252D01*
X142984Y24656D01*
Y26286D01*
X143708Y27010D01*
X146874D01*
X146973Y26510D01*
X146725Y26408D01*
X146092Y25774D01*
X145772Y25000D01*
X150228D01*
X149908Y25774D01*
X149275Y26408D01*
X149027Y26510D01*
X149126Y27010D01*
X150925D01*
X151715Y27167D01*
X152385Y27615D01*
X155235Y30465D01*
X155683Y31135D01*
X155718Y31310D01*
X156233Y31521D01*
X156267Y31510D01*
X156593Y30725D01*
X157226Y30092D01*
X158000Y29772D01*
Y32000D01*
X159000D01*
Y29772D01*
X159774Y30092D01*
X160407Y30725D01*
X160467Y30869D01*
X160967Y30769D01*
Y28922D01*
X160467Y28715D01*
X160275Y28907D01*
X159500Y29228D01*
Y27000D01*
Y24772D01*
X159576Y24803D01*
X159992Y24526D01*
Y20760D01*
X166008D01*
Y23830D01*
X166508Y23930D01*
X166593Y23726D01*
X167226Y23092D01*
X168000Y22772D01*
Y25000D01*
Y27228D01*
X167226Y26908D01*
X166593Y26274D01*
X166332Y25645D01*
X166112Y25398D01*
X165788Y25280D01*
X165450D01*
X165096Y25633D01*
Y28516D01*
X166437D01*
Y30500D01*
Y32484D01*
X165096D01*
Y35516D01*
X166469D01*
Y37500D01*
Y39484D01*
X163436D01*
X163031Y39565D01*
X160954D01*
X160747Y40065D01*
X160907Y40225D01*
X161228Y41000D01*
X156772D01*
X157092Y40225D01*
X157253Y40065D01*
X157046Y39565D01*
X156436D01*
X155924Y40076D01*
X155126Y40537D01*
X154236Y40775D01*
X153315D01*
X152425Y40537D01*
X151626Y40076D01*
X150975Y39424D01*
X150514Y38626D01*
X150275Y37736D01*
Y36815D01*
X150514Y35925D01*
X150975Y35126D01*
X151626Y34475D01*
X151711Y34426D01*
Y32780D01*
X150986Y32055D01*
X150524Y32246D01*
Y34524D01*
X149000D01*
Y32500D01*
X148500D01*
Y32000D01*
X146476D01*
Y31139D01*
X142853D01*
X142063Y30982D01*
X141393Y30535D01*
X140146Y29287D01*
X139016D01*
Y27626D01*
X138935Y27222D01*
Y27205D01*
X139016Y26800D01*
Y24656D01*
X138935Y24252D01*
Y22000D01*
X139093Y21210D01*
X139540Y20540D01*
X139770Y20386D01*
X139619Y19886D01*
X139094D01*
X139062Y19907D01*
X138272Y20065D01*
X138252Y20061D01*
X136127D01*
X136040Y20525D01*
X136867Y20867D01*
X137500Y21500D01*
X137821Y22275D01*
X133364D01*
X133685Y21500D01*
X134318Y20867D01*
X135145Y20525D01*
X135058Y20061D01*
X133575D01*
X133368Y20020D01*
X132527D01*
Y24963D01*
X132484Y25179D01*
Y26886D01*
X131174D01*
X130463Y27027D01*
X130088Y26953D01*
X129588Y27332D01*
Y29976D01*
X129584Y30000D01*
X129588Y30024D01*
Y32672D01*
X129975Y32989D01*
X130244Y32935D01*
X131034Y33092D01*
X131067Y33114D01*
X132228D01*
Y34233D01*
X142750Y44755D01*
X143250Y44547D01*
Y44052D01*
X143593Y43225D01*
X144226Y42592D01*
X145000Y42272D01*
Y44500D01*
Y46728D01*
X144226Y46407D01*
X144013Y46195D01*
X143611Y46375D01*
X143545Y46434D01*
Y48094D01*
X145827D01*
Y60980D01*
X147173D01*
Y55500D01*
X151520D01*
Y55000D01*
X152020D01*
Y48094D01*
X154205D01*
X154412Y47594D01*
X154093Y47275D01*
X153750Y46448D01*
Y45552D01*
X154093Y44725D01*
X154726Y44093D01*
X155552Y43750D01*
X156448D01*
X157274Y44093D01*
X157907Y44725D01*
X158250Y45552D01*
Y46448D01*
X157907Y47275D01*
X157588Y47594D01*
X157795Y48094D01*
X160941D01*
Y55000D01*
X161941D01*
Y48094D01*
X165620Y48094D01*
X165620Y48094D01*
X165620Y48094D01*
X166084Y48037D01*
X166250Y48004D01*
X166250Y47976D01*
Y47552D01*
X166593Y46725D01*
X167226Y46093D01*
X168052Y45750D01*
X168948D01*
X169774Y46093D01*
X170407Y46725D01*
X170750Y47552D01*
Y48448D01*
X170407Y49275D01*
X169774Y49907D01*
X168948Y50250D01*
X168052D01*
X167226Y49907D01*
X166593Y49275D01*
X166275Y48509D01*
X166250Y48448D01*
X165787Y48538D01*
X165787Y48594D01*
Y51114D01*
X167783D01*
X168505Y51257D01*
X169117Y51666D01*
X171701Y54250D01*
X171948D01*
X172775Y54593D01*
X173407Y55225D01*
X173728Y56000D01*
X171500D01*
Y57000D01*
X173728D01*
X173407Y57775D01*
X173386Y57796D01*
Y59158D01*
X175906D01*
Y63004D01*
X169000D01*
Y63504D01*
X168500D01*
Y67850D01*
X162520D01*
Y69157D01*
X175906D01*
Y69157D01*
X176240Y69296D01*
X179216Y66320D01*
Y61511D01*
X178851Y61301D01*
X178199Y60649D01*
X177738Y59851D01*
X177500Y58961D01*
Y58039D01*
X177738Y57149D01*
X178199Y56351D01*
X178851Y55699D01*
X179649Y55238D01*
X180539Y55000D01*
X181461D01*
X182351Y55238D01*
X183149Y55699D01*
X183671Y56221D01*
X184047Y56520D01*
X185635D01*
X185797Y56487D01*
X185960Y56520D01*
X189469D01*
Y58504D01*
Y60488D01*
X184047D01*
X183669Y60781D01*
X183149Y61301D01*
X182784Y61511D01*
Y63720D01*
X183579D01*
Y63520D01*
X189000D01*
Y65504D01*
Y67488D01*
X183579D01*
Y67488D01*
X183083Y67499D01*
X182262Y68321D01*
X182262Y68321D01*
X175906Y74677D01*
Y77850D01*
X162520D01*
Y79158D01*
X168500D01*
Y83504D01*
Y87850D01*
X162520D01*
Y89157D01*
X168500D01*
Y93504D01*
Y97850D01*
X162520D01*
Y98000D01*
X162442Y98390D01*
X162221Y98721D01*
X161890Y98942D01*
X161850Y98950D01*
Y104500D01*
X157504D01*
X153157D01*
Y99020D01*
X151850D01*
Y111906D01*
X149033D01*
Y127269D01*
X149533Y127368D01*
X149592Y127225D01*
X150225Y126593D01*
X151052Y126250D01*
X151948D01*
X152775Y126593D01*
X153408Y127225D01*
X153750Y128052D01*
Y128948D01*
X153408Y129774D01*
X152775Y130408D01*
X151948Y130750D01*
X151052D01*
X150225Y130408D01*
X149592Y129774D01*
X149533Y129632D01*
X149033Y129731D01*
Y135371D01*
X150413Y136750D01*
X150948D01*
X151775Y137092D01*
X152408Y137725D01*
X152750Y138552D01*
Y139448D01*
X152408Y140275D01*
X151775Y140908D01*
X150948Y141250D01*
D02*
G37*
G36*
X76448Y126750D02*
X75552D01*
X74726Y126408D01*
X74093Y125775D01*
X73750Y124948D01*
Y124052D01*
X74093Y123225D01*
X74726Y122592D01*
X75552Y122250D01*
X76448D01*
X77275Y122592D01*
X77908Y123225D01*
X78250Y124052D01*
Y124948D01*
X77908Y125775D01*
X77275Y126408D01*
X76448Y126750D01*
D02*
G37*
G36*
X33948Y125750D02*
X33052D01*
X32225Y125408D01*
X31593Y124775D01*
X31250Y123948D01*
Y123052D01*
X31593Y122225D01*
X32225Y121592D01*
X33052Y121250D01*
X33948D01*
X34775Y121592D01*
X35408Y122225D01*
X35750Y123052D01*
Y123948D01*
X35408Y124775D01*
X34775Y125408D01*
X33948Y125750D01*
D02*
G37*
G36*
X40948Y125250D02*
X40052D01*
X39226Y124908D01*
X38592Y124275D01*
X38250Y123448D01*
Y122552D01*
X38592Y121725D01*
X39226Y121092D01*
X40052Y120750D01*
X40948D01*
X41774Y121092D01*
X42408Y121725D01*
X42750Y122552D01*
Y123448D01*
X42408Y124275D01*
X41774Y124908D01*
X40948Y125250D01*
D02*
G37*
G36*
X90448Y125042D02*
X89552D01*
X88726Y124700D01*
X88092Y124067D01*
X87750Y123240D01*
Y122345D01*
X88092Y121518D01*
X88726Y120885D01*
X89552Y120542D01*
X90448D01*
X91274Y120885D01*
X91908Y121518D01*
X92250Y122345D01*
Y123240D01*
X91908Y124067D01*
X91274Y124700D01*
X90448Y125042D01*
D02*
G37*
G36*
X152948Y122250D02*
X152052D01*
X151225Y121907D01*
X150593Y121274D01*
X150250Y120448D01*
Y119552D01*
X150593Y118726D01*
X151225Y118093D01*
X152052Y117750D01*
X152948D01*
X153774Y118093D01*
X154408Y118726D01*
X154750Y119552D01*
Y120448D01*
X154408Y121274D01*
X153774Y121907D01*
X152948Y122250D01*
D02*
G37*
G36*
X137000Y118228D02*
Y116500D01*
X138728D01*
X138408Y117274D01*
X137775Y117908D01*
X137000Y118228D01*
D02*
G37*
G36*
X136000D02*
X135225Y117908D01*
X134592Y117274D01*
X134272Y116500D01*
X136000D01*
Y118228D01*
D02*
G37*
G36*
X158500Y117228D02*
Y115500D01*
X160228D01*
X159907Y116274D01*
X159274Y116908D01*
X158500Y117228D01*
D02*
G37*
G36*
X157500D02*
X156726Y116908D01*
X156093Y116274D01*
X155772Y115500D01*
X157500D01*
Y117228D01*
D02*
G37*
G36*
X126000D02*
Y115500D01*
X127728D01*
X127408Y116274D01*
X126775Y116908D01*
X126000Y117228D01*
D02*
G37*
G36*
X125000D02*
X124225Y116908D01*
X123592Y116274D01*
X123272Y115500D01*
X125000D01*
Y117228D01*
D02*
G37*
G36*
X109448Y118250D02*
X108552D01*
X107726Y117908D01*
X107092Y117274D01*
X106750Y116448D01*
Y115552D01*
X107092Y114725D01*
X107726Y114093D01*
X108552Y113750D01*
X109448D01*
X110275Y114093D01*
X110907Y114725D01*
X111250Y115552D01*
Y116448D01*
X110907Y117274D01*
X110275Y117908D01*
X109448Y118250D01*
D02*
G37*
G36*
X91948D02*
X91052D01*
X90225Y117908D01*
X89592Y117274D01*
X89250Y116448D01*
Y115552D01*
X89592Y114725D01*
X90225Y114093D01*
X91052Y113750D01*
X91948D01*
X92774Y114093D01*
X93407Y114725D01*
X93750Y115552D01*
Y116448D01*
X93407Y117274D01*
X92774Y117908D01*
X91948Y118250D01*
D02*
G37*
G36*
X71948Y117750D02*
X71052D01*
X70226Y117408D01*
X69592Y116774D01*
X69250Y115948D01*
Y115052D01*
X69592Y114225D01*
X70226Y113593D01*
X71052Y113250D01*
X71948D01*
X72774Y113593D01*
X73408Y114225D01*
X73750Y115052D01*
Y115948D01*
X73408Y116774D01*
X72774Y117408D01*
X71948Y117750D01*
D02*
G37*
G36*
X29526Y112063D02*
X28631D01*
X27804Y111721D01*
X27171Y111088D01*
X26829Y110261D01*
Y109366D01*
X27171Y108539D01*
X27804Y107906D01*
X28631Y107563D01*
X29526D01*
X30353Y107906D01*
X30986Y108539D01*
X31329Y109366D01*
Y110261D01*
X30986Y111088D01*
X30353Y111721D01*
X29526Y112063D01*
D02*
G37*
G36*
X138728Y115500D02*
X134272D01*
X134592Y114725D01*
X135225Y114093D01*
X135307Y114059D01*
X135374Y113722D01*
X135706Y113226D01*
X135975Y112957D01*
Y111906D01*
X133158D01*
Y105500D01*
X137504D01*
X141850D01*
Y111906D01*
X139033D01*
Y113590D01*
X138917Y114175D01*
X138585Y114672D01*
X138444Y114813D01*
X138728Y115500D01*
D02*
G37*
G36*
X128163Y114500D02*
X123272D01*
X123592Y113725D01*
X124225Y113093D01*
X125052Y112750D01*
X125576D01*
X125919Y112406D01*
X125899Y111906D01*
X123118D01*
Y105500D01*
X127465D01*
X131811D01*
Y111906D01*
X128994D01*
Y113035D01*
X128877Y113621D01*
X128546Y114117D01*
X128163Y114500D01*
D02*
G37*
G36*
X108448Y108542D02*
X107552D01*
X106726Y108200D01*
X106093Y107567D01*
X105750Y106740D01*
Y105845D01*
X106093Y105018D01*
X106726Y104385D01*
X107552Y104042D01*
X108448D01*
X109274Y104385D01*
X109907Y105018D01*
X110250Y105845D01*
Y106740D01*
X109907Y107567D01*
X109274Y108200D01*
X108448Y108542D01*
D02*
G37*
G36*
X103448Y107750D02*
X102552D01*
X101725Y107407D01*
X101093Y106774D01*
X100750Y105948D01*
Y105052D01*
X101093Y104226D01*
X101725Y103593D01*
X102552Y103250D01*
X103448D01*
X104274Y103593D01*
X104908Y104226D01*
X105250Y105052D01*
Y105948D01*
X104908Y106774D01*
X104274Y107407D01*
X103448Y107750D01*
D02*
G37*
G36*
X90448D02*
X89552D01*
X88726Y107407D01*
X88092Y106774D01*
X87750Y105948D01*
Y105052D01*
X88092Y104226D01*
X88726Y103593D01*
X89552Y103250D01*
X90448D01*
X91274Y103593D01*
X91908Y104226D01*
X92250Y105052D01*
Y105948D01*
X91908Y106774D01*
X91274Y107407D01*
X90448Y107750D01*
D02*
G37*
G36*
X185948Y107250D02*
X185052D01*
X184225Y106907D01*
X183592Y106274D01*
X183250Y105448D01*
Y104552D01*
X183592Y103726D01*
X184225Y103093D01*
X185052Y102750D01*
X185948D01*
X186775Y103093D01*
X187408Y103726D01*
X187750Y104552D01*
Y105448D01*
X187408Y106274D01*
X186775Y106907D01*
X185948Y107250D01*
D02*
G37*
G36*
X74948Y105011D02*
X74052D01*
X73225Y104668D01*
X72593Y104035D01*
X72250Y103208D01*
Y102313D01*
X72593Y101486D01*
X73225Y100853D01*
X74052Y100511D01*
X74948D01*
X75775Y100853D01*
X76407Y101486D01*
X76750Y102313D01*
Y103208D01*
X76407Y104035D01*
X75775Y104668D01*
X74948Y105011D01*
D02*
G37*
G36*
X180956Y102266D02*
X180061D01*
X179234Y101924D01*
X178601Y101291D01*
X178259Y100464D01*
Y99569D01*
X178601Y98742D01*
X179234Y98109D01*
X180061Y97766D01*
X180956D01*
X181783Y98109D01*
X182416Y98742D01*
X182759Y99569D01*
Y100464D01*
X182416Y101291D01*
X181783Y101924D01*
X180956Y102266D01*
D02*
G37*
G36*
X43448Y102250D02*
X42552D01*
X41726Y101908D01*
X41093Y101275D01*
X40750Y100448D01*
Y99552D01*
X41093Y98725D01*
X41726Y98093D01*
X42552Y97750D01*
X43448D01*
X44275Y98093D01*
X44908Y98725D01*
X45250Y99552D01*
Y100448D01*
X44908Y101275D01*
X44275Y101908D01*
X43448Y102250D01*
D02*
G37*
G36*
X89448Y100750D02*
X88552D01*
X87726Y100408D01*
X87093Y99774D01*
X86750Y98948D01*
Y98052D01*
X87093Y97225D01*
X87726Y96592D01*
X88552Y96250D01*
X89448D01*
X90275Y96592D01*
X90908Y97225D01*
X91250Y98052D01*
Y98948D01*
X90908Y99774D01*
X90275Y100408D01*
X89448Y100750D01*
D02*
G37*
G36*
X195448Y100250D02*
X194552D01*
X193726Y99907D01*
X193093Y99274D01*
X192750Y98448D01*
Y97552D01*
X193093Y96725D01*
X193726Y96092D01*
X194552Y95750D01*
X195448D01*
X196274Y96092D01*
X196907Y96725D01*
X197250Y97552D01*
Y98448D01*
X196907Y99274D01*
X196274Y99907D01*
X195448Y100250D01*
D02*
G37*
G36*
X118500Y97850D02*
X112094D01*
Y95029D01*
X111381D01*
X111003Y95407D01*
X110228Y95728D01*
Y93500D01*
Y91272D01*
X111003Y91593D01*
X111381Y91971D01*
X112094D01*
Y89157D01*
X118500D01*
Y93504D01*
Y97850D01*
D02*
G37*
G36*
X180180Y96538D02*
Y94809D01*
X181909D01*
X181588Y95584D01*
X180955Y96217D01*
X180180Y96538D01*
D02*
G37*
G36*
X66448Y99250D02*
X65552D01*
X64726Y98908D01*
X64092Y98274D01*
X63750Y97448D01*
Y96552D01*
X64092Y95726D01*
X64726Y95092D01*
X65552Y94750D01*
X66448D01*
X67274Y95092D01*
X67908Y95726D01*
X68250Y96552D01*
Y97448D01*
X67908Y98274D01*
X67274Y98908D01*
X66448Y99250D01*
D02*
G37*
G36*
X60948D02*
X60052D01*
X59225Y98908D01*
X58592Y98274D01*
X58250Y97448D01*
Y96552D01*
X58592Y95726D01*
X59225Y95092D01*
X60052Y94750D01*
X60948D01*
X61774Y95092D01*
X62407Y95726D01*
X62750Y96552D01*
Y97448D01*
X62407Y98274D01*
X61774Y98908D01*
X60948Y99250D01*
D02*
G37*
G36*
X109228Y95728D02*
X108454Y95407D01*
X107821Y94775D01*
X107500Y94000D01*
X109228D01*
Y95728D01*
D02*
G37*
G36*
X181909Y93809D02*
X180180D01*
Y92081D01*
X180955Y92402D01*
X181588Y93035D01*
X181909Y93809D01*
D02*
G37*
G36*
X109228Y93000D02*
X107500D01*
X107821Y92225D01*
X108454Y91593D01*
X109228Y91272D01*
Y93000D01*
D02*
G37*
G36*
X175906Y97850D02*
X169500D01*
Y93504D01*
Y89157D01*
X175906D01*
Y91505D01*
X178000D01*
X178585Y91622D01*
X179081Y91953D01*
X179180Y92052D01*
Y94309D01*
Y96538D01*
X178406Y96217D01*
X177773Y95584D01*
X177430Y94757D01*
Y94628D01*
X177366Y94564D01*
X175906D01*
Y97850D01*
D02*
G37*
G36*
X50448Y92250D02*
X49552D01*
X48726Y91908D01*
X48092Y91274D01*
X47750Y90448D01*
Y89552D01*
X48092Y88726D01*
X48726Y88092D01*
X49552Y87750D01*
X50448D01*
X51275Y88092D01*
X51907Y88726D01*
X52250Y89552D01*
Y90448D01*
X51907Y91274D01*
X51275Y91908D01*
X50448Y92250D01*
D02*
G37*
G36*
X181464Y91259D02*
X180569D01*
X179742Y90916D01*
X179109Y90283D01*
X178766Y89456D01*
Y88561D01*
X179109Y87734D01*
X179742Y87101D01*
X180569Y86759D01*
X181464D01*
X182291Y87101D01*
X182924Y87734D01*
X183266Y88561D01*
Y89456D01*
X182924Y90283D01*
X182291Y90916D01*
X181464Y91259D01*
D02*
G37*
G36*
X13211Y90042D02*
X12316D01*
X11489Y89700D01*
X10856Y89067D01*
X10513Y88240D01*
Y87345D01*
X10856Y86518D01*
X11489Y85885D01*
X12316Y85542D01*
X13211D01*
X14038Y85885D01*
X14671Y86518D01*
X15013Y87345D01*
Y88240D01*
X14671Y89067D01*
X14038Y89700D01*
X13211Y90042D01*
D02*
G37*
G36*
X182000Y85728D02*
Y84000D01*
X183728D01*
X183407Y84775D01*
X182774Y85408D01*
X182000Y85728D01*
D02*
G37*
G36*
X84448Y87750D02*
X83552D01*
X82726Y87407D01*
X82092Y86774D01*
X81750Y85948D01*
Y85052D01*
X82092Y84225D01*
X82726Y83592D01*
X83552Y83250D01*
X84448D01*
X85274Y83592D01*
X85908Y84225D01*
X86250Y85052D01*
Y85948D01*
X85908Y86774D01*
X85274Y87407D01*
X84448Y87750D01*
D02*
G37*
G36*
X183728Y83000D02*
X182000D01*
Y81272D01*
X182774Y81593D01*
X183407Y82226D01*
X183728Y83000D01*
D02*
G37*
G36*
X175906Y87850D02*
X169500D01*
Y83504D01*
Y79158D01*
X175906D01*
Y81971D01*
X179847D01*
X180226Y81593D01*
X181000Y81272D01*
Y83500D01*
Y85728D01*
X180226Y85408D01*
X179847Y85029D01*
X175906D01*
Y87850D01*
D02*
G37*
G36*
X12549Y80958D02*
X11654D01*
X10827Y80615D01*
X10194Y79982D01*
X9851Y79155D01*
Y78260D01*
X10194Y77433D01*
X10827Y76800D01*
X11654Y76458D01*
X12549D01*
X13376Y76800D01*
X14009Y77433D01*
X14351Y78260D01*
Y79155D01*
X14009Y79982D01*
X13376Y80615D01*
X12549Y80958D01*
D02*
G37*
G36*
X180948Y79750D02*
X180052D01*
X179226Y79408D01*
X178593Y78774D01*
X178250Y77948D01*
Y77052D01*
X178593Y76226D01*
X179226Y75592D01*
X180052Y75250D01*
X180948D01*
X181774Y75592D01*
X182407Y76226D01*
X182750Y77052D01*
Y77948D01*
X182407Y78774D01*
X181774Y79408D01*
X180948Y79750D01*
D02*
G37*
G36*
X118500Y77850D02*
X112094D01*
Y75033D01*
X110471D01*
X110000Y75228D01*
Y73000D01*
Y70772D01*
X110775Y71092D01*
X111407Y71725D01*
X111511Y71974D01*
X112094D01*
Y69157D01*
X118500D01*
Y73504D01*
Y77850D01*
D02*
G37*
G36*
X109000Y75228D02*
X108226Y74907D01*
X107592Y74274D01*
X107272Y73500D01*
X109000D01*
Y75228D01*
D02*
G37*
G36*
Y72500D02*
X107272D01*
X107592Y71725D01*
X108226Y71092D01*
X109000Y70772D01*
Y72500D01*
D02*
G37*
G36*
X44448Y73250D02*
X43552D01*
X42726Y72908D01*
X42092Y72275D01*
X41750Y71448D01*
Y70552D01*
X42092Y69726D01*
X42726Y69093D01*
X43552Y68750D01*
X44448D01*
X45274Y69093D01*
X45908Y69726D01*
X46250Y70552D01*
Y71448D01*
X45908Y72275D01*
X45274Y72908D01*
X44448Y73250D01*
D02*
G37*
G36*
X93461Y75000D02*
X92539D01*
X91649Y74761D01*
X90851Y74301D01*
X90199Y73649D01*
X89739Y72851D01*
X89500Y71961D01*
Y71039D01*
X89739Y70149D01*
X90199Y69351D01*
X90851Y68699D01*
X91649Y68239D01*
X92539Y68000D01*
X93461D01*
X94351Y68239D01*
X95149Y68699D01*
X95801Y69351D01*
X96262Y70149D01*
X96500Y71039D01*
Y71961D01*
X96262Y72851D01*
X95801Y73649D01*
X95149Y74301D01*
X94351Y74761D01*
X93461Y75000D01*
D02*
G37*
G36*
X193500Y68000D02*
X192726Y67679D01*
X192093Y67046D01*
X191984Y66785D01*
X191484Y66884D01*
Y67488D01*
X190000D01*
Y65504D01*
Y63520D01*
X191484D01*
Y64659D01*
X191984Y64759D01*
X192093Y64497D01*
X192726Y63864D01*
X193500Y63543D01*
Y65772D01*
Y68000D01*
D02*
G37*
G36*
X194500D02*
Y66272D01*
X196228D01*
X195907Y67046D01*
X195274Y67679D01*
X194500Y68000D01*
D02*
G37*
G36*
X105956Y69766D02*
X105061D01*
X104234Y69424D01*
X103601Y68791D01*
X103259Y67964D01*
Y67069D01*
X103601Y66242D01*
X104234Y65609D01*
X105061Y65266D01*
X105956D01*
X106783Y65609D01*
X107416Y66242D01*
X107759Y67069D01*
Y67964D01*
X107416Y68791D01*
X106783Y69424D01*
X105956Y69766D01*
D02*
G37*
G36*
X118500Y67850D02*
X112094D01*
Y65029D01*
X111381D01*
X111003Y65408D01*
X110228Y65728D01*
Y63500D01*
Y61272D01*
X111003Y61593D01*
X111381Y61971D01*
X112094D01*
Y59158D01*
X118500D01*
Y63504D01*
Y67850D01*
D02*
G37*
G36*
X175906D02*
X169500D01*
Y64004D01*
X175906D01*
Y67850D01*
D02*
G37*
G36*
X109228Y65728D02*
X108454Y65408D01*
X107821Y64775D01*
X107500Y64000D01*
X109228D01*
Y65728D01*
D02*
G37*
G36*
X196228Y65272D02*
X194500D01*
Y63543D01*
X195274Y63864D01*
X195907Y64497D01*
X196228Y65272D01*
D02*
G37*
G36*
X109228Y63000D02*
X107500D01*
X107821Y62226D01*
X108454Y61593D01*
X109228Y61272D01*
Y63000D01*
D02*
G37*
G36*
X193563Y60627D02*
X192789Y60306D01*
X192453Y59970D01*
X191953Y60177D01*
Y60488D01*
X190469D01*
Y58504D01*
Y56520D01*
X191953D01*
Y56620D01*
X192453Y56827D01*
X192789Y56491D01*
X193563Y56170D01*
Y58398D01*
Y60627D01*
D02*
G37*
G36*
X48248Y64042D02*
X47353D01*
X46526Y63700D01*
X45893Y63067D01*
X45551Y62240D01*
Y61345D01*
X45893Y60518D01*
X46526Y59885D01*
X47353Y59542D01*
X48248D01*
X49075Y59885D01*
X49708Y60518D01*
X50051Y61345D01*
Y62240D01*
X49708Y63067D01*
X49075Y63700D01*
X48248Y64042D01*
D02*
G37*
G36*
X11346D02*
X10451D01*
X9624Y63700D01*
X8991Y63067D01*
X8649Y62240D01*
Y61345D01*
X8991Y60518D01*
X9624Y59885D01*
X10451Y59542D01*
X11346D01*
X12173Y59885D01*
X12806Y60518D01*
X13149Y61345D01*
Y62240D01*
X12806Y63067D01*
X12173Y63700D01*
X11346Y64042D01*
D02*
G37*
G36*
X194563Y60627D02*
Y58898D01*
X196292D01*
X195971Y59673D01*
X195338Y60306D01*
X194563Y60627D01*
D02*
G37*
G36*
X196292Y57898D02*
X194563D01*
Y56170D01*
X195338Y56491D01*
X195971Y57124D01*
X196292Y57898D01*
D02*
G37*
G36*
X77948Y58750D02*
X77052D01*
X76226Y58407D01*
X75592Y57775D01*
X75250Y56948D01*
Y56052D01*
X75592Y55225D01*
X76226Y54593D01*
X77052Y54250D01*
X77948D01*
X78774Y54593D01*
X79408Y55225D01*
X79750Y56052D01*
Y56948D01*
X79408Y57775D01*
X78774Y58407D01*
X77948Y58750D01*
D02*
G37*
G36*
X60961Y58500D02*
X60039D01*
X59149Y58262D01*
X58351Y57801D01*
X57699Y57149D01*
X57239Y56351D01*
X57000Y55461D01*
Y54539D01*
X57239Y53649D01*
X57699Y52851D01*
X58351Y52199D01*
X59149Y51739D01*
X60039Y51500D01*
X60961D01*
X61851Y51739D01*
X62649Y52199D01*
X63301Y52851D01*
X63762Y53649D01*
X64000Y54539D01*
Y55461D01*
X63762Y56351D01*
X63301Y57149D01*
X62649Y57801D01*
X61851Y58262D01*
X60961Y58500D01*
D02*
G37*
G36*
X7948Y55750D02*
X7052D01*
X6225Y55408D01*
X5593Y54774D01*
X5250Y53948D01*
Y53052D01*
X5593Y52226D01*
X6225Y51592D01*
X7052Y51250D01*
X7948D01*
X8775Y51592D01*
X9408Y52226D01*
X9750Y53052D01*
Y53948D01*
X9408Y54774D01*
X8775Y55408D01*
X7948Y55750D01*
D02*
G37*
G36*
X124651Y54750D02*
X123755D01*
X122928Y54408D01*
X122295Y53774D01*
X121953Y52948D01*
Y52052D01*
X122295Y51226D01*
X122928Y50592D01*
X123755Y50250D01*
X124651D01*
X125478Y50592D01*
X126110Y51226D01*
X126453Y52052D01*
Y52948D01*
X126110Y53774D01*
X125478Y54408D01*
X124651Y54750D01*
D02*
G37*
G36*
X151020Y54500D02*
X147173D01*
Y48094D01*
X151020D01*
Y54500D01*
D02*
G37*
G36*
X135827D02*
X131980D01*
Y48094D01*
X135827D01*
Y54500D01*
D02*
G37*
G36*
X130980D02*
X127134D01*
Y48094D01*
X130980D01*
Y54500D01*
D02*
G37*
G36*
X174448Y49750D02*
X173552D01*
X172725Y49408D01*
X172092Y48774D01*
X171750Y47948D01*
Y47052D01*
X172092Y46226D01*
X172725Y45592D01*
X173552Y45250D01*
X174448D01*
X175275Y45592D01*
X175908Y46226D01*
X176250Y47052D01*
Y47948D01*
X175908Y48774D01*
X175275Y49408D01*
X174448Y49750D01*
D02*
G37*
G36*
X146000Y46728D02*
Y45000D01*
X147728D01*
X147407Y45774D01*
X146774Y46407D01*
X146000Y46728D01*
D02*
G37*
G36*
X133272D02*
Y45000D01*
X135000D01*
X134679Y45774D01*
X134046Y46407D01*
X133272Y46728D01*
D02*
G37*
G36*
X132272D02*
X131497Y46407D01*
X130864Y45774D01*
X130543Y45000D01*
X132272D01*
Y46728D01*
D02*
G37*
G36*
X105068Y48842D02*
X104173D01*
X103346Y48500D01*
X102713Y47867D01*
X102370Y47040D01*
Y46145D01*
X102713Y45318D01*
X103346Y44685D01*
X104173Y44342D01*
X105068D01*
X105894Y44685D01*
X106527Y45318D01*
X106870Y46145D01*
Y47040D01*
X106527Y47867D01*
X105894Y48500D01*
X105068Y48842D01*
D02*
G37*
G36*
X122948Y48750D02*
X122052D01*
X121226Y48408D01*
X120592Y47774D01*
X120250Y46948D01*
Y46052D01*
X120592Y45226D01*
X121226Y44592D01*
X122052Y44250D01*
X122948D01*
X123775Y44592D01*
X124407Y45226D01*
X124750Y46052D01*
Y46948D01*
X124407Y47774D01*
X123775Y48408D01*
X122948Y48750D01*
D02*
G37*
G36*
X6447D02*
X5553D01*
X4725Y48408D01*
X4092Y47774D01*
X3750Y46948D01*
Y46052D01*
X4092Y45226D01*
X4725Y44592D01*
X5553Y44250D01*
X6447D01*
X7275Y44592D01*
X7908Y45226D01*
X8250Y46052D01*
Y46948D01*
X7908Y47774D01*
X7275Y48408D01*
X6447Y48750D01*
D02*
G37*
G36*
X147728Y44000D02*
X146000D01*
Y42272D01*
X146774Y42592D01*
X147407Y43225D01*
X147728Y44000D01*
D02*
G37*
G36*
X132272D02*
X130543D01*
X130864Y43225D01*
X131497Y42592D01*
X132272Y42272D01*
Y44000D01*
D02*
G37*
G36*
X159500Y43728D02*
Y42000D01*
X161228D01*
X160907Y42775D01*
X160275Y43407D01*
X159500Y43728D01*
D02*
G37*
G36*
X158500D02*
X157726Y43407D01*
X157092Y42775D01*
X156772Y42000D01*
X158500D01*
Y43728D01*
D02*
G37*
G36*
X164948Y45750D02*
X164052D01*
X163225Y45408D01*
X162592Y44774D01*
X162250Y43948D01*
Y43052D01*
X162592Y42226D01*
X163225Y41592D01*
X164052Y41250D01*
X164948D01*
X165775Y41592D01*
X166408Y42226D01*
X166750Y43052D01*
Y43948D01*
X166408Y44774D01*
X165775Y45408D01*
X164948Y45750D01*
D02*
G37*
G36*
X128408Y42003D02*
Y40275D01*
X130136D01*
X129815Y41049D01*
X129182Y41682D01*
X128408Y42003D01*
D02*
G37*
G36*
X127408D02*
X126633Y41682D01*
X126000Y41049D01*
X125679Y40275D01*
X127408D01*
Y42003D01*
D02*
G37*
G36*
X142000Y41728D02*
Y40000D01*
X143728D01*
X143407Y40775D01*
X142774Y41407D01*
X142000Y41728D01*
D02*
G37*
G36*
X141000D02*
X140226Y41407D01*
X139593Y40775D01*
X139272Y40000D01*
X141000D01*
Y41728D01*
D02*
G37*
G36*
X34448Y44250D02*
X33552D01*
X32726Y43907D01*
X32092Y43275D01*
X31750Y42448D01*
Y41552D01*
X32092Y40725D01*
X32726Y40093D01*
X33552Y39750D01*
X34448D01*
X35274Y40093D01*
X35908Y40725D01*
X36250Y41552D01*
Y42448D01*
X35908Y43275D01*
X35274Y43907D01*
X34448Y44250D01*
D02*
G37*
G36*
X71948Y43750D02*
X71052D01*
X70226Y43407D01*
X69592Y42775D01*
X69250Y41948D01*
Y41052D01*
X69592Y40225D01*
X70226Y39592D01*
X71052Y39250D01*
X71948D01*
X72774Y39592D01*
X73408Y40225D01*
X73750Y41052D01*
Y41948D01*
X73408Y42775D01*
X72774Y43407D01*
X71948Y43750D01*
D02*
G37*
G36*
X148000Y40728D02*
Y39000D01*
X149728D01*
X149407Y39775D01*
X148775Y40407D01*
X148000Y40728D01*
D02*
G37*
G36*
X147000D02*
X146226Y40407D01*
X145592Y39775D01*
X145272Y39000D01*
X147000D01*
Y40728D01*
D02*
G37*
G36*
X192500Y41284D02*
X183024D01*
Y38815D01*
X192500D01*
Y41284D01*
D02*
G37*
G36*
X171000Y39728D02*
X170226Y39408D01*
X169592Y38774D01*
X169453Y38437D01*
X168953Y38537D01*
Y39484D01*
X167469D01*
Y37500D01*
Y35516D01*
X168953D01*
Y36463D01*
X169453Y36563D01*
X169592Y36226D01*
X170226Y35592D01*
X171000Y35272D01*
Y37500D01*
Y39728D01*
D02*
G37*
G36*
X172000D02*
Y38000D01*
X173728D01*
X173407Y38774D01*
X172775Y39408D01*
X172000Y39728D01*
D02*
G37*
G36*
X143728Y39000D02*
X142000D01*
Y37272D01*
X142774Y37593D01*
X143407Y38225D01*
X143728Y39000D01*
D02*
G37*
G36*
X141000D02*
X139272D01*
X139593Y38225D01*
X140226Y37593D01*
X141000Y37272D01*
Y39000D01*
D02*
G37*
G36*
X149728Y38000D02*
X148000D01*
Y36272D01*
X148775Y36593D01*
X149407Y37225D01*
X149728Y38000D01*
D02*
G37*
G36*
X147000D02*
X145272D01*
X145592Y37225D01*
X146226Y36593D01*
X147000Y36272D01*
Y38000D01*
D02*
G37*
G36*
X173728Y37000D02*
X172000D01*
Y35272D01*
X172775Y35592D01*
X173407Y36226D01*
X173728Y37000D01*
D02*
G37*
G36*
X137500Y36728D02*
Y35000D01*
X139228D01*
X138908Y35774D01*
X138275Y36408D01*
X137500Y36728D01*
D02*
G37*
G36*
X136500D02*
X135725Y36408D01*
X135092Y35774D01*
X134772Y35000D01*
X136500D01*
Y36728D01*
D02*
G37*
G36*
X148000Y34524D02*
X146476D01*
Y33000D01*
X148000D01*
Y34524D01*
D02*
G37*
G36*
X119226Y34136D02*
X118451Y33815D01*
X117818Y33182D01*
X117497Y32408D01*
X119226D01*
Y34136D01*
D02*
G37*
G36*
X139228Y34000D02*
X137500D01*
Y32272D01*
X138275Y32592D01*
X138908Y33226D01*
X139228Y34000D01*
D02*
G37*
G36*
X136500D02*
X134772D01*
X135092Y33226D01*
X135725Y32592D01*
X136500Y32272D01*
Y34000D01*
D02*
G37*
G36*
X172500Y33228D02*
Y31500D01*
X174228D01*
X173907Y32274D01*
X173275Y32908D01*
X172500Y33228D01*
D02*
G37*
G36*
X171500D02*
X170726Y32908D01*
X170092Y32274D01*
X169772Y31500D01*
X171500D01*
Y33228D01*
D02*
G37*
G36*
X168921Y32484D02*
X167437D01*
Y31000D01*
X168921D01*
Y32484D01*
D02*
G37*
G36*
X133000Y32228D02*
Y30500D01*
X134728D01*
X134407Y31275D01*
X133774Y31907D01*
X133000Y32228D01*
D02*
G37*
G36*
X132000D02*
X131226Y31907D01*
X130593Y31275D01*
X130272Y30500D01*
X132000D01*
Y32228D01*
D02*
G37*
G36*
X120226Y34136D02*
Y31907D01*
Y29679D01*
X121000Y30000D01*
X121633Y30633D01*
X121807Y31053D01*
X122307Y30954D01*
Y30500D01*
X123791D01*
Y31886D01*
X122476D01*
X122307Y31886D01*
X121976Y32248D01*
Y32355D01*
X121633Y33182D01*
X121000Y33815D01*
X120226Y34136D01*
D02*
G37*
G36*
X119226Y31407D02*
X117497D01*
X117818Y30633D01*
X118451Y30000D01*
X119226Y29679D01*
Y31407D01*
D02*
G37*
G36*
X174228Y30500D02*
X172500D01*
Y28772D01*
X173275Y29092D01*
X173907Y29726D01*
X174228Y30500D01*
D02*
G37*
G36*
X171500D02*
X169772D01*
X170092Y29726D01*
X170726Y29092D01*
X171500Y28772D01*
Y30500D01*
D02*
G37*
G36*
X106948Y33250D02*
X106052D01*
X105226Y32908D01*
X104593Y32274D01*
X104250Y31448D01*
Y30552D01*
X104593Y29726D01*
X105226Y29092D01*
X106052Y28750D01*
X106948D01*
X107774Y29092D01*
X108407Y29726D01*
X108750Y30552D01*
Y31448D01*
X108407Y32274D01*
X107774Y32908D01*
X106948Y33250D01*
D02*
G37*
G36*
X168921Y30000D02*
X167437D01*
Y28516D01*
X168921D01*
Y30000D01*
D02*
G37*
G36*
X123791Y29500D02*
X122307D01*
Y28114D01*
X123791D01*
Y29500D01*
D02*
G37*
G36*
X134728D02*
X133000D01*
Y27772D01*
X133774Y28093D01*
X134407Y28725D01*
X134728Y29500D01*
D02*
G37*
G36*
X132000D02*
X130272D01*
X130593Y28725D01*
X131226Y28093D01*
X132000Y27772D01*
Y29500D01*
D02*
G37*
G36*
X158500Y29228D02*
X157726Y28907D01*
X157092Y28275D01*
X156772Y27500D01*
X158500D01*
Y29228D01*
D02*
G37*
G36*
X175000Y27728D02*
Y26000D01*
X176728D01*
X176408Y26774D01*
X175775Y27408D01*
X175000Y27728D01*
D02*
G37*
G36*
X174000D02*
X173225Y27408D01*
X172592Y26774D01*
X172272Y26000D01*
X174000D01*
Y27728D01*
D02*
G37*
G36*
X169000Y27228D02*
Y25500D01*
X170728D01*
X170407Y26274D01*
X169774Y26908D01*
X169000Y27228D01*
D02*
G37*
G36*
X158500Y26500D02*
X156772D01*
X157092Y25725D01*
X157726Y25093D01*
X158500Y24772D01*
Y26500D01*
D02*
G37*
G36*
X123000Y26228D02*
Y24500D01*
X124728D01*
X124407Y25275D01*
X123775Y25907D01*
X123000Y26228D01*
D02*
G37*
G36*
X122000D02*
X121226Y25907D01*
X120592Y25275D01*
X120272Y24500D01*
X122000D01*
Y26228D01*
D02*
G37*
G36*
X104948Y28250D02*
X104052D01*
X103226Y27907D01*
X102593Y27275D01*
X102250Y26448D01*
Y25552D01*
X102593Y24725D01*
X103226Y24092D01*
X104052Y23750D01*
X104948D01*
X105774Y24092D01*
X106407Y24725D01*
X106750Y25552D01*
Y26448D01*
X106407Y27275D01*
X105774Y27907D01*
X104948Y28250D01*
D02*
G37*
G36*
X136092Y25003D02*
Y23275D01*
X137821D01*
X137500Y24049D01*
X136867Y24682D01*
X136092Y25003D01*
D02*
G37*
G36*
X135092D02*
X134318Y24682D01*
X133685Y24049D01*
X133364Y23275D01*
X135092D01*
Y25003D01*
D02*
G37*
G36*
X174000Y25000D02*
X172272D01*
X172592Y24226D01*
X173225Y23593D01*
X174000Y23272D01*
Y25000D01*
D02*
G37*
G36*
X170728Y24500D02*
X169000D01*
Y22772D01*
X169774Y23092D01*
X170407Y23726D01*
X170728Y24500D01*
D02*
G37*
G36*
X150228Y24000D02*
X148500D01*
Y22272D01*
X149275Y22592D01*
X149908Y23225D01*
X150228Y24000D01*
D02*
G37*
G36*
X147500D02*
X145772D01*
X146092Y23225D01*
X146725Y22592D01*
X147500Y22272D01*
Y24000D01*
D02*
G37*
G36*
X31867Y26670D02*
X30972D01*
X30145Y26327D01*
X29512Y25694D01*
X29170Y24867D01*
Y23972D01*
X29512Y23145D01*
X30145Y22512D01*
X30972Y22170D01*
X31867D01*
X32694Y22512D01*
X33327Y23145D01*
X33670Y23972D01*
Y24867D01*
X33327Y25694D01*
X32694Y26327D01*
X31867Y26670D01*
D02*
G37*
G36*
X124728Y23500D02*
X123000D01*
Y21772D01*
X123775Y22093D01*
X124407Y22726D01*
X124728Y23500D01*
D02*
G37*
G36*
X122000D02*
X120272D01*
X120592Y22726D01*
X121226Y22093D01*
X122000Y21772D01*
Y23500D01*
D02*
G37*
G36*
X125500Y20228D02*
Y18500D01*
X127228D01*
X126908Y19275D01*
X126275Y19907D01*
X125500Y20228D01*
D02*
G37*
G36*
X124500D02*
X123725Y19907D01*
X123092Y19275D01*
X122772Y18500D01*
X124500D01*
Y20228D01*
D02*
G37*
G36*
X178726Y18321D02*
Y16592D01*
X180454D01*
X180133Y17367D01*
X179500Y18000D01*
X178726Y18321D01*
D02*
G37*
G36*
X127228Y17500D02*
X125500D01*
Y15772D01*
X126275Y16093D01*
X126908Y16725D01*
X127228Y17500D01*
D02*
G37*
G36*
X124500D02*
X122772D01*
X123092Y16725D01*
X123725Y16093D01*
X124500Y15772D01*
Y17500D01*
D02*
G37*
G36*
X91448Y20250D02*
X90552D01*
X89726Y19907D01*
X89092Y19275D01*
X88750Y18448D01*
Y17552D01*
X89092Y16725D01*
X89726Y16093D01*
X90552Y15750D01*
X91448D01*
X92274Y16093D01*
X92908Y16725D01*
X93250Y17552D01*
Y18448D01*
X92908Y19275D01*
X92274Y19907D01*
X91448Y20250D01*
D02*
G37*
G36*
X116448Y19750D02*
X115552D01*
X114725Y19408D01*
X114093Y18775D01*
X113750Y17948D01*
Y17052D01*
X114093Y16226D01*
X114725Y15593D01*
X115552Y15250D01*
X116448D01*
X117274Y15593D01*
X117908Y16226D01*
X118250Y17052D01*
Y17948D01*
X117908Y18775D01*
X117274Y19408D01*
X116448Y19750D01*
D02*
G37*
G36*
X192500Y17185D02*
X183024D01*
Y14717D01*
X192500D01*
Y17185D01*
D02*
G37*
G36*
X180454Y15593D02*
X178726D01*
Y13864D01*
X179500Y14185D01*
X180133Y14818D01*
X180454Y15593D01*
D02*
G37*
G36*
X172587Y14237D02*
Y12509D01*
X174316D01*
X173995Y13283D01*
X173362Y13916D01*
X172587Y14237D01*
D02*
G37*
G36*
X171587D02*
X170813Y13916D01*
X170180Y13283D01*
X169859Y12509D01*
X171587D01*
Y14237D01*
D02*
G37*
G36*
X145626Y13366D02*
X143650D01*
Y12276D01*
X145626D01*
Y13366D01*
D02*
G37*
G36*
X132907Y13954D02*
Y12225D01*
X134636D01*
X134315Y13000D01*
X133682Y13633D01*
X132907Y13954D01*
D02*
G37*
G36*
X131907D02*
X131133Y13633D01*
X130500Y13000D01*
X130179Y12225D01*
X131907D01*
Y13954D01*
D02*
G37*
G36*
X63948Y16250D02*
X63052D01*
X62226Y15908D01*
X61593Y15274D01*
X61250Y14448D01*
Y13552D01*
X61593Y12725D01*
X62226Y12093D01*
X63052Y11750D01*
X63948D01*
X64775Y12093D01*
X65408Y12725D01*
X65750Y13552D01*
Y14448D01*
X65408Y15274D01*
X64775Y15908D01*
X63948Y16250D01*
D02*
G37*
G36*
X142228Y13000D02*
X140500D01*
Y11272D01*
X141274Y11592D01*
X141908Y12225D01*
X142228Y13000D01*
D02*
G37*
G36*
X139500D02*
X137772D01*
X138093Y12225D01*
X138725Y11592D01*
X139500Y11272D01*
Y13000D01*
D02*
G37*
G36*
X145772Y11728D02*
Y10000D01*
X147500D01*
X147179Y10774D01*
X146546Y11407D01*
X145772Y11728D01*
D02*
G37*
G36*
X144772D02*
X143997Y11407D01*
X143364Y10774D01*
X143043Y10000D01*
X144772D01*
Y11728D01*
D02*
G37*
G36*
X174316Y11509D02*
X172587D01*
Y9780D01*
X173362Y10101D01*
X173995Y10734D01*
X174316Y11509D01*
D02*
G37*
G36*
X171587D02*
X169859D01*
X170180Y10734D01*
X170813Y10101D01*
X171587Y9780D01*
Y11509D01*
D02*
G37*
G36*
X134636Y11225D02*
X132907D01*
Y9497D01*
X133682Y9818D01*
X134315Y10451D01*
X134636Y11225D01*
D02*
G37*
G36*
X131907D02*
X130179D01*
X130500Y10451D01*
X131133Y9818D01*
X131907Y9497D01*
Y11225D01*
D02*
G37*
G36*
X87948Y13750D02*
X87052D01*
X86225Y13408D01*
X85593Y12775D01*
X85250Y11947D01*
Y11052D01*
X85593Y10226D01*
X86225Y9593D01*
X87052Y9250D01*
X87948D01*
X88775Y9593D01*
X89407Y10226D01*
X89750Y11052D01*
Y11947D01*
X89407Y12775D01*
X88775Y13408D01*
X87948Y13750D01*
D02*
G37*
G36*
X168093Y10454D02*
Y8726D01*
X169821D01*
X169500Y9500D01*
X168867Y10133D01*
X168093Y10454D01*
D02*
G37*
G36*
X167093D02*
X166318Y10133D01*
X165685Y9500D01*
X165364Y8726D01*
X167093D01*
Y10454D01*
D02*
G37*
G36*
X157500Y9228D02*
Y7500D01*
X159228D01*
X158907Y8275D01*
X158274Y8907D01*
X157500Y9228D01*
D02*
G37*
G36*
X156500D02*
X155726Y8907D01*
X155093Y8275D01*
X154772Y7500D01*
X156500D01*
Y9228D01*
D02*
G37*
G36*
X147500Y9000D02*
X145772D01*
Y7272D01*
X146546Y7593D01*
X147179Y8225D01*
X147500Y9000D01*
D02*
G37*
G36*
X144772D02*
X143043D01*
X143364Y8225D01*
X143997Y7593D01*
X144772Y7272D01*
Y9000D01*
D02*
G37*
G36*
X169821Y7726D02*
X168093D01*
Y5997D01*
X168867Y6318D01*
X169500Y6951D01*
X169821Y7726D01*
D02*
G37*
G36*
X167093D02*
X165364D01*
X165685Y6951D01*
X166318Y6318D01*
X167093Y5997D01*
Y7726D01*
D02*
G37*
G36*
X159228Y6500D02*
X157500D01*
Y4772D01*
X158274Y5093D01*
X158907Y5725D01*
X159228Y6500D01*
D02*
G37*
G36*
X156500D02*
X154772D01*
X155093Y5725D01*
X155726Y5093D01*
X156500Y4772D01*
Y6500D01*
D02*
G37*
G36*
X42461Y11000D02*
X41539D01*
X40649Y10762D01*
X39851Y10301D01*
X39199Y9649D01*
X38739Y8851D01*
X38500Y7961D01*
Y7039D01*
X38739Y6149D01*
X39199Y5351D01*
X39851Y4699D01*
X40649Y4239D01*
X41539Y4000D01*
X42461D01*
X43351Y4239D01*
X44149Y4699D01*
X44801Y5351D01*
X45261Y6149D01*
X45500Y7039D01*
Y7961D01*
X45261Y8851D01*
X44801Y9649D01*
X44149Y10301D01*
X43351Y10762D01*
X42461Y11000D01*
D02*
G37*
G36*
X164583Y4327D02*
X163000D01*
Y2646D01*
X164583D01*
Y4327D01*
D02*
G37*
G36*
X162000D02*
X160417D01*
Y2646D01*
X162000D01*
Y4327D01*
D02*
G37*
%LPD*%
G36*
X192471Y143081D02*
Y130865D01*
X191971Y130533D01*
X191500Y130728D01*
Y128500D01*
X190500D01*
Y130728D01*
X190029Y130533D01*
X189529Y130865D01*
Y142517D01*
X189945Y142795D01*
X190052Y142750D01*
X190948D01*
X191774Y143093D01*
X191971Y143289D01*
X192471Y143081D01*
D02*
G37*
D11*
X136500Y116000D02*
X136787Y115713D01*
Y114307D02*
X137504Y113590D01*
X136787Y114307D02*
Y115713D01*
X137504Y105000D02*
Y113590D01*
X129476Y147618D02*
Y150500D01*
Y147618D02*
X133594Y143500D01*
X139500D01*
X139047Y165397D02*
Y169953D01*
X138500Y164850D02*
X139047Y165397D01*
X163713Y110713D02*
X164000Y111000D01*
X163713Y108713D02*
Y110713D01*
X163500Y108500D02*
X163713Y108713D01*
X163500Y107500D02*
Y108500D01*
Y107500D02*
X166500Y104500D01*
X173000D01*
X194000Y125500D01*
Y162000D01*
X181500Y174500D02*
X194000Y162000D01*
X143595Y174500D02*
X181500D01*
X139047Y169953D02*
X143595Y174500D01*
X139047Y150500D02*
Y156603D01*
X138500Y157150D02*
X139047Y156603D01*
X121586Y165000D02*
X125350D01*
X125500Y164850D01*
X121000Y164414D02*
X121586Y165000D01*
X121000Y127086D02*
Y164414D01*
Y127086D02*
X121586Y126500D01*
X128500D01*
X125500Y157150D02*
X126000D01*
X126524Y150500D02*
Y156626D01*
X126000Y157150D02*
X126524Y156626D01*
X107200Y165200D02*
X112150D01*
X112500Y164850D01*
X103500Y161500D02*
X107200Y165200D01*
X112500Y157150D02*
X113000D01*
X113976Y151500D02*
Y156674D01*
X113500Y157150D02*
X113976Y156674D01*
X113000Y157150D02*
X113500D01*
X169004Y83500D02*
X181500D01*
X169000Y83504D02*
X169004Y83500D01*
X169000Y63504D02*
X169004Y63500D01*
X178000Y93035D02*
X179274Y94309D01*
X169469Y93035D02*
X178000D01*
X179274Y94309D02*
X179680D01*
X169000Y93504D02*
X169469Y93035D01*
X158500Y12173D02*
X162500Y8173D01*
X158500Y12173D02*
Y15000D01*
X157563Y15937D02*
X158500Y15000D01*
X154000Y15937D02*
X157563D01*
X7000Y151173D02*
Y157000D01*
X158000Y114594D02*
Y115000D01*
X157504Y105000D02*
Y114098D01*
X158000Y114594D01*
X118996Y63500D02*
X119000Y63504D01*
X109728Y63500D02*
X118996D01*
X109500Y73000D02*
X109906D01*
X110410Y73504D02*
X119000D01*
X109906Y73000D02*
X110410Y73504D01*
X109728Y93500D02*
X118996D01*
X119000Y93504D01*
X127465Y105000D02*
Y113035D01*
X125500Y115000D02*
X127465Y113035D01*
X147504Y105000D02*
Y136004D01*
X150500Y139000D01*
X155197Y171500D02*
X180500D01*
X188000Y146682D02*
X191250Y149932D01*
X180500Y171500D02*
X191250Y160750D01*
Y149932D02*
Y160750D01*
X171500Y112000D02*
X171787Y112287D01*
X172787D01*
X185500Y125000D01*
X168000Y108000D02*
X172000D01*
X188000Y124000D01*
X172450Y115500D02*
X182461Y125511D01*
X166000Y115500D02*
X172450D01*
X182461Y125511D02*
Y157601D01*
X185500Y125000D02*
Y162379D01*
X188000Y124000D02*
Y146682D01*
X165133Y169000D02*
X178879D01*
X185500Y162379D01*
X151547Y167850D02*
X155197Y171500D01*
X151547Y164850D02*
Y167850D01*
X164547Y168414D02*
X165133Y169000D01*
X164547Y164850D02*
Y168414D01*
X179497Y160564D02*
X182461Y157601D01*
X179497Y160564D02*
Y163850D01*
X178497Y164850D02*
X179497Y163850D01*
X163500Y143500D02*
X176500D01*
X180476Y147476D01*
Y150500D01*
X177547Y164850D02*
X178497D01*
X102500Y151500D02*
X111024D01*
X192827Y27827D02*
X193000Y28000D01*
X191500Y17500D02*
X192815D01*
X193000Y17685D01*
X163500Y143500D02*
X167476Y147476D01*
Y150500D01*
X159000Y143500D02*
X163500D01*
X154500Y148000D02*
X159000Y143500D01*
X154500Y148000D02*
Y150476D01*
X154476Y150500D02*
X154500Y150476D01*
X139500Y143500D02*
X142000Y146000D01*
Y150500D01*
X177524D02*
Y157126D01*
X177547Y157150D01*
X164524Y150500D02*
Y157126D01*
X164547Y157150D01*
X151524Y157126D02*
X151547Y157150D01*
X151524Y150500D02*
Y157126D01*
D17*
X7000Y147827D02*
D03*
Y151173D02*
D03*
X162500Y8173D02*
D03*
Y4827D02*
D03*
D18*
X119000Y93504D02*
D03*
Y73504D02*
D03*
Y63504D02*
D03*
X169000D02*
D03*
Y73504D02*
D03*
Y83504D02*
D03*
Y93504D02*
D03*
X119000Y83504D02*
D03*
D19*
X127465Y105000D02*
D03*
X137504D02*
D03*
X147504D02*
D03*
X157504D02*
D03*
X131480Y55000D02*
D03*
X141480D02*
D03*
X151520D02*
D03*
X161441D02*
D03*
D20*
X193000Y17685D02*
D03*
Y38315D02*
D03*
D21*
Y28000D02*
D03*
D22*
X177524Y150500D02*
D03*
X180476D02*
D03*
X164524D02*
D03*
X167476D02*
D03*
X151524D02*
D03*
X154476D02*
D03*
X139047D02*
D03*
X142000D02*
D03*
X126524D02*
D03*
X129476D02*
D03*
X113976Y151500D02*
D03*
X111024D02*
D03*
X127244Y30000D02*
D03*
X124291D02*
D03*
X130244Y35000D02*
D03*
X127291D02*
D03*
X130500Y25000D02*
D03*
X127547D02*
D03*
D23*
X148500Y29350D02*
D03*
Y32500D02*
D03*
D24*
X163000Y17980D02*
D03*
Y23020D02*
D03*
D25*
X146126Y20071D02*
D03*
Y18000D02*
D03*
Y15937D02*
D03*
Y13866D02*
D03*
X154000D02*
D03*
Y15937D02*
D03*
Y18000D02*
D03*
Y20071D02*
D03*
D26*
X150063Y16969D02*
D03*
D27*
X112500Y164850D02*
D03*
Y157150D02*
D03*
X125500Y164850D02*
D03*
Y157150D02*
D03*
X138500D02*
D03*
Y164850D02*
D03*
X151547Y157150D02*
D03*
Y164850D02*
D03*
X164547Y157150D02*
D03*
Y164850D02*
D03*
X177547Y157150D02*
D03*
Y164850D02*
D03*
D28*
X163000Y30500D02*
D03*
X166937D02*
D03*
X163031Y37500D02*
D03*
X166969D02*
D03*
X185563Y65504D02*
D03*
X189500D02*
D03*
X186031Y58504D02*
D03*
X189969D02*
D03*
D29*
X170425Y18228D02*
D03*
X173575D02*
D03*
X130425Y17996D02*
D03*
X133575D02*
D03*
D30*
X141000Y27205D02*
D03*
Y24252D02*
D03*
D41*
X137500Y191500D02*
D03*
X147500D02*
D03*
X157500D02*
D03*
X167500D02*
D03*
X177500D02*
D03*
X187500D02*
D03*
D44*
X146126Y13866D02*
Y15937D01*
D45*
X169003Y63504D02*
X171500Y61007D01*
X169000Y63504D02*
X169003D01*
X171500Y56500D02*
Y61007D01*
X7000Y141000D02*
Y147827D01*
X171783Y31000D02*
X172000D01*
X161441Y55000D02*
X163441Y53000D01*
X167783D01*
X171283Y56500D01*
X171500D01*
X154016Y51500D02*
X158944D01*
X151520Y53996D02*
X154016Y51500D01*
X161441Y53996D02*
Y55000D01*
X158944Y51500D02*
X161441Y53996D01*
X151520D02*
Y55000D01*
X141000Y22000D02*
X142929Y20071D01*
X138272Y18000D02*
X141500D01*
D46*
X130244Y35168D02*
X141480Y46405D01*
X130244Y35000D02*
Y35168D01*
X141480Y46405D02*
Y55000D01*
X163031Y23114D02*
Y37500D01*
X154000D02*
X163031D01*
X141000Y27222D02*
X142853Y29075D01*
X150925D01*
X162969Y18012D02*
X170209D01*
X162957Y18000D02*
X162969Y18012D01*
X159500Y18000D02*
X162957D01*
X170209Y18012D02*
X170425Y18228D01*
X141000Y22000D02*
Y24252D01*
X138268Y17996D02*
X138272Y18000D01*
X133575Y17996D02*
X138268D01*
X153775Y37275D02*
X154000Y37500D01*
X150925Y29075D02*
X153775Y31925D01*
Y37275D01*
X183173Y27827D02*
X192827D01*
X173575Y18228D02*
X183173Y27827D01*
X141000Y27205D02*
Y27222D01*
X130463Y18034D02*
Y24963D01*
X127524Y30024D02*
Y34976D01*
X127547Y35000D01*
X127524Y25024D02*
Y29976D01*
Y25024D02*
X127547Y25000D01*
X127500Y30000D02*
X127524Y29976D01*
X127500Y30000D02*
X127524Y30024D01*
D47*
X174059Y74000D02*
X181000Y67059D01*
X171500Y74000D02*
X174059D01*
X181000Y67059D02*
X182555Y65504D01*
X185563D01*
X181000Y58500D02*
Y67059D01*
Y58500D02*
X185797D01*
Y58272D02*
Y58500D01*
X130425Y17996D02*
X130463Y18034D01*
Y24963D02*
X130500Y25000D01*
D48*
X142929Y20071D02*
X146126D01*
X141500Y18000D02*
X146126D01*
X154000D02*
X156500D01*
D49*
X157000D02*
X159500D01*
D50*
X18500Y191792D02*
D03*
D51*
X8500D02*
D03*
D52*
X136500Y116000D02*
D03*
X134000Y143500D02*
D03*
X103000Y105500D02*
D03*
X87500Y11500D02*
D03*
X84000Y85500D02*
D03*
X19500Y159500D02*
D03*
X152500Y120000D02*
D03*
X181016Y89009D02*
D03*
X195000Y98000D02*
D03*
X180500Y77500D02*
D03*
X105509Y67516D02*
D03*
X109848Y79750D02*
D03*
X180509Y100016D02*
D03*
X185500Y105000D02*
D03*
X191000Y128500D02*
D03*
X188500Y158000D02*
D03*
X66000Y97000D02*
D03*
X60500D02*
D03*
X181500Y83500D02*
D03*
X179680Y94309D02*
D03*
X164000Y111000D02*
D03*
X132772Y44500D02*
D03*
X145500D02*
D03*
X28000Y166000D02*
D03*
X106500Y31000D02*
D03*
X104620Y46593D02*
D03*
X82500Y138000D02*
D03*
X94548Y140291D02*
D03*
X65199Y132292D02*
D03*
X37500Y154000D02*
D03*
X29079Y109813D02*
D03*
X7000Y141000D02*
D03*
Y157000D02*
D03*
X43000Y100000D02*
D03*
X40500Y123000D02*
D03*
X33500Y134000D02*
D03*
Y123500D02*
D03*
X50000Y90000D02*
D03*
X164500Y43500D02*
D03*
X156000Y46000D02*
D03*
X168500Y48000D02*
D03*
X159000Y41500D02*
D03*
X174000Y47500D02*
D03*
X122500Y46500D02*
D03*
X104500Y26000D02*
D03*
X124203Y52500D02*
D03*
X127908Y39775D02*
D03*
X119726Y31907D02*
D03*
X122500Y24000D02*
D03*
X141500Y39500D02*
D03*
X147500Y38500D02*
D03*
X132500Y30000D02*
D03*
X137000Y34500D02*
D03*
X151500Y128500D02*
D03*
X34000Y42000D02*
D03*
X63500Y14000D02*
D03*
X6000Y46500D02*
D03*
X116000Y17500D02*
D03*
X91000Y18000D02*
D03*
X168000Y108000D02*
D03*
X171500Y112000D02*
D03*
X166000Y115500D02*
D03*
X128500Y126500D02*
D03*
X190500Y145000D02*
D03*
X71500Y41500D02*
D03*
X113000Y172000D02*
D03*
Y178500D02*
D03*
Y185000D02*
D03*
Y191000D02*
D03*
X102500Y151500D02*
D03*
X12101Y78708D02*
D03*
X12763Y87792D02*
D03*
X118000Y145000D02*
D03*
X171500Y56500D02*
D03*
X71500Y115500D02*
D03*
X163000Y13000D02*
D03*
X157000Y7000D02*
D03*
X159000Y27000D02*
D03*
X135592Y22774D02*
D03*
X167593Y8225D02*
D03*
X187000Y17500D02*
D03*
X191500D02*
D03*
X197000D02*
D03*
X44000Y71000D02*
D03*
X31420Y24420D02*
D03*
X109000Y116000D02*
D03*
X91500D02*
D03*
X90000Y105500D02*
D03*
X108000Y106292D02*
D03*
X107500Y139843D02*
D03*
X89000Y98500D02*
D03*
X83000Y155500D02*
D03*
X76000Y124500D02*
D03*
X77500Y56500D02*
D03*
X43000Y129000D02*
D03*
X148000Y24500D02*
D03*
X7500Y53500D02*
D03*
X163500Y143500D02*
D03*
X192000Y38500D02*
D03*
X103500Y161500D02*
D03*
X150500Y139000D02*
D03*
X55500Y182000D02*
D03*
X47801Y61792D02*
D03*
X10899D02*
D03*
X11500Y132000D02*
D03*
X20399Y179792D02*
D03*
X40034Y143292D02*
D03*
X74500Y102761D02*
D03*
X90000Y122792D02*
D03*
Y134792D02*
D03*
X158000Y115000D02*
D03*
X158500Y32000D02*
D03*
X186500Y38500D02*
D03*
X172000Y31000D02*
D03*
X171500Y37500D02*
D03*
X125000Y18000D02*
D03*
X140000Y13500D02*
D03*
X174500Y25500D02*
D03*
X178226Y16093D02*
D03*
X172087Y12009D02*
D03*
X168500Y25000D02*
D03*
X145272Y9500D02*
D03*
X197000Y38500D02*
D03*
X132407Y11726D02*
D03*
X194063Y58398D02*
D03*
X194000Y65772D02*
D03*
X109728Y93500D02*
D03*
Y63500D02*
D03*
X125500Y115000D02*
D03*
X109500Y73000D02*
D03*
D53*
X42000Y7500D02*
D03*
X170500Y119500D02*
D03*
X129000Y134000D02*
D03*
X153775Y37275D02*
D03*
X181000Y58500D02*
D03*
X93000Y71500D02*
D03*
X60500Y55000D02*
D03*
M02*
