G04*
G04 #@! TF.GenerationSoftware,Altium Limited,Altium Designer,24.9.1 (31)*
G04*
G04 Layer_Physical_Order=5*
G04 Layer_Color=128*
%FSLAX25Y25*%
%MOIN*%
G70*
G04*
G04 #@! TF.SameCoordinates,E493A569-BD46-4AD9-B400-18CC68C2C09C*
G04*
G04*
G04 #@! TF.FilePolarity,Negative*
G04*
G01*
G75*
%ADD53C,0.05000*%
%ADD54C,0.04000*%
%ADD55C,0.08331*%
%ADD56C,0.08000*%
%ADD57C,0.06800*%
%ADD58C,0.05400*%
D53*
X134000Y143500D02*
D03*
X103000Y105500D02*
D03*
X87500Y11500D02*
D03*
X19500Y159500D02*
D03*
X152500Y120000D02*
D03*
X195000Y98000D02*
D03*
X180500Y77500D02*
D03*
X105509Y67516D02*
D03*
X180509Y100016D02*
D03*
X191000Y128500D02*
D03*
X188500Y158000D02*
D03*
X164000Y111000D02*
D03*
X28000Y166000D02*
D03*
X106500Y31000D02*
D03*
X104620Y46593D02*
D03*
X82500Y138000D02*
D03*
X94548Y140291D02*
D03*
X7000Y141000D02*
D03*
X33500Y134000D02*
D03*
Y123500D02*
D03*
X168500Y48000D02*
D03*
X174000Y47500D02*
D03*
X104500Y26000D02*
D03*
X124203Y52500D02*
D03*
X34000Y42000D02*
D03*
X63500Y14000D02*
D03*
X6000Y46500D02*
D03*
X116000Y17500D02*
D03*
X91000Y18000D02*
D03*
X168000Y108000D02*
D03*
X171500Y112000D02*
D03*
X166000Y115500D02*
D03*
X128500Y126500D02*
D03*
X113000Y172000D02*
D03*
Y178500D02*
D03*
Y185000D02*
D03*
Y191000D02*
D03*
X102500Y151500D02*
D03*
X31420Y24420D02*
D03*
X90000Y105500D02*
D03*
X163500Y143500D02*
D03*
X150500Y139000D02*
D03*
D54*
X0Y0D02*
X200000D01*
Y200000D01*
X0D02*
X200000D01*
X0Y0D02*
Y200000D01*
D55*
X18500Y191792D02*
D03*
D56*
X137500Y191500D02*
D03*
X147500D02*
D03*
X157500D02*
D03*
X177500D02*
D03*
X187500D02*
D03*
D57*
X42000Y7500D02*
D03*
X170500Y119500D02*
D03*
X129000Y134000D02*
D03*
X153775Y37275D02*
D03*
X181000Y58500D02*
D03*
X93000Y71500D02*
D03*
X60500Y55000D02*
D03*
D58*
X136500Y116000D02*
D03*
X181500Y83500D02*
D03*
X179680Y94309D02*
D03*
X132772Y44500D02*
D03*
X145500D02*
D03*
X164500Y43500D02*
D03*
X159000Y41500D02*
D03*
X127908Y39775D02*
D03*
X119726Y31907D02*
D03*
X122500Y24000D02*
D03*
X141500Y39500D02*
D03*
X147500Y38500D02*
D03*
X132500Y30000D02*
D03*
X137000Y34500D02*
D03*
X171500Y56500D02*
D03*
X163000Y13000D02*
D03*
X157000Y7000D02*
D03*
X159000Y27000D02*
D03*
X135592Y22774D02*
D03*
X167593Y8225D02*
D03*
X187000Y17500D02*
D03*
X191500D02*
D03*
X197000D02*
D03*
X148000Y24500D02*
D03*
X192000Y38500D02*
D03*
X158000Y115000D02*
D03*
X158500Y32000D02*
D03*
X186500Y38500D02*
D03*
X172000Y31000D02*
D03*
X171500Y37500D02*
D03*
X125000Y18000D02*
D03*
X140000Y13500D02*
D03*
X174500Y25500D02*
D03*
X178226Y16093D02*
D03*
X172087Y12009D02*
D03*
X168500Y25000D02*
D03*
X145272Y9500D02*
D03*
X197000Y38500D02*
D03*
X132407Y11726D02*
D03*
X194063Y58398D02*
D03*
X194000Y65772D02*
D03*
X109728Y93500D02*
D03*
Y63500D02*
D03*
X125500Y115000D02*
D03*
X109500Y73000D02*
D03*
M02*
