M48
;Layer_Color=9474304
;FILE_FORMAT=2:4
INCH,TZ
;TYPE=PLATED
T01F00S00C0.0100
T02F00S00C0.0140
T03F00S00C0.0280
T04F00S00C0.0400
T05F00S00C0.0433
%
T01
X600Y4650
X750Y5350
X1090Y6179
X1210Y7871
X1276Y8779
X2908Y10981
X3350Y12350
X4050Y12300
X4300Y12900
X3350Y13400
X4003Y14329
X3750Y15400
X700Y14100
X1150Y13200
X6520Y13229
X7600Y12450
X7150Y11550
X7450Y10276
X6600Y9700
X6050
X5000Y9000
X4300Y10000
X4400Y7100
X4780Y6179
X3400Y4200
X3142Y2442
X6350Y1400
X8750Y1150
X9100Y1800
X10450Y2600
X10650Y3100
X10462Y4659
X12250Y4650
X12420Y5250
X10551Y6752
X10985Y7975
X10800Y10629
X10300Y10550
X9000
X8900Y9850
X8400Y8550
X7750Y5650
X7150Y4150
X11600Y1750
X15600Y4600
X15250Y12000
X15150Y12850
X15050Y13900
X13400Y14350
X11800Y14500
X10750Y13984
X9455Y14029
X9000Y13479
X8250Y13800
X8300Y15550
X10250Y15150
X9000Y12279
X9150Y11600
X10900
X12850Y12650
X16600Y11550
X16400Y11100
X16800Y10800
X17150Y11200
X18051Y10002
X18550Y10500
X19500Y9800
X18102Y8901
X18050Y7750
X17400Y4750
X16850Y4800
X16350Y14350
X19050Y14500
X19100Y12850
X18850Y15800
X10350Y16150
X11300Y17200
Y17850
Y18500
Y19100
X5550Y18200
X2040Y17979
X1950Y15950
X2800Y16600
X700Y15700
T02
X12500Y1800
X12250Y2400
X11973Y3191
X13250Y3000
X13700Y3450
X14150Y3950
X14750Y3850
X14550Y4450
X13277
X12791Y3977
X13559Y2277
X14000Y1350
X14527Y950
X13241Y1173
X14800Y2450
X10973Y6350
X10950Y7300
X10973Y9350
X12550Y11500
X13650Y11600
X15800Y11500
X17968Y9431
X18150Y8350
X19400Y6577
X19406Y5840
X19200Y3850
X19700
X18650
X17150Y3750
X17200Y3100
X17450Y2550
X16850Y2500
X15900Y2700
X15850Y3200
X15900Y4150
X16450Y4350
X17150Y5650
X17209Y1201
X16759Y823
X16300Y1300
X15700Y700
X17823Y1609
X18700Y1750
X19150
X19700
T03
X4200Y750
X6050Y5500
X9300Y7150
X15378Y3728
X12900Y13400
X17050Y11950
X18100Y5850
T04
X15750Y19150
X16750
X17750
X18750
X14750
X13750
T05
X850Y19179
X1850
M30
