G04*
G04 #@! TF.GenerationSoftware,Altium Limited,Altium Designer,24.9.1 (31)*
G04*
G04 Layer_Physical_Order=2*
G04 Layer_Color=32768*
%FSLAX25Y25*%
%MOIN*%
G70*
G04*
G04 #@! TF.SameCoordinates,E493A569-BD46-4AD9-B400-18CC68C2C09C*
G04*
G04*
G04 #@! TF.FilePolarity,Negative*
G04*
G01*
G75*
%ADD53C,0.05000*%
%ADD54C,0.04000*%
%ADD55C,0.08331*%
%ADD56C,0.08000*%
%ADD57C,0.06800*%
%ADD58C,0.05400*%
D53*
X134000Y143500D02*
D03*
X103000Y105500D02*
D03*
X87500Y11500D02*
D03*
X84000Y85500D02*
D03*
X19500Y159500D02*
D03*
X152500Y120000D02*
D03*
X181016Y89009D02*
D03*
X195000Y98000D02*
D03*
X180500Y77500D02*
D03*
X105509Y67516D02*
D03*
X109848Y79750D02*
D03*
X180509Y100016D02*
D03*
X185500Y105000D02*
D03*
X188500Y158000D02*
D03*
X66000Y97000D02*
D03*
X60500D02*
D03*
X164000Y111000D02*
D03*
X28000Y166000D02*
D03*
X106500Y31000D02*
D03*
X104620Y46593D02*
D03*
X82500Y138000D02*
D03*
X94548Y140291D02*
D03*
X65199Y132292D02*
D03*
X37500Y154000D02*
D03*
X29079Y109813D02*
D03*
X7000Y157000D02*
D03*
X43000Y100000D02*
D03*
X40500Y123000D02*
D03*
X33500Y134000D02*
D03*
Y123500D02*
D03*
X50000Y90000D02*
D03*
X156000Y46000D02*
D03*
X168500Y48000D02*
D03*
X174000Y47500D02*
D03*
X122500Y46500D02*
D03*
X104500Y26000D02*
D03*
X124203Y52500D02*
D03*
X151500Y128500D02*
D03*
X34000Y42000D02*
D03*
X63500Y14000D02*
D03*
X6000Y46500D02*
D03*
X116000Y17500D02*
D03*
X91000Y18000D02*
D03*
X168000Y108000D02*
D03*
X171500Y112000D02*
D03*
X166000Y115500D02*
D03*
X128500Y126500D02*
D03*
X190500Y145000D02*
D03*
X71500Y41500D02*
D03*
X113000Y172000D02*
D03*
Y178500D02*
D03*
Y185000D02*
D03*
Y191000D02*
D03*
X102500Y151500D02*
D03*
X12101Y78708D02*
D03*
X12763Y87792D02*
D03*
X118000Y145000D02*
D03*
X71500Y115500D02*
D03*
X44000Y71000D02*
D03*
X31420Y24420D02*
D03*
X109000Y116000D02*
D03*
X91500D02*
D03*
X90000Y105500D02*
D03*
X108000Y106292D02*
D03*
X107500Y139843D02*
D03*
X89000Y98500D02*
D03*
X83000Y155500D02*
D03*
X76000Y124500D02*
D03*
X77500Y56500D02*
D03*
X43000Y129000D02*
D03*
X7500Y53500D02*
D03*
X163500Y143500D02*
D03*
X103500Y161500D02*
D03*
X150500Y139000D02*
D03*
X55500Y182000D02*
D03*
X47801Y61792D02*
D03*
X10899D02*
D03*
X11500Y132000D02*
D03*
X20399Y179792D02*
D03*
X40034Y143292D02*
D03*
X74500Y102761D02*
D03*
X90000Y122792D02*
D03*
Y134792D02*
D03*
D54*
X0Y0D02*
X200000D01*
Y200000D01*
X0D02*
X200000D01*
X0Y0D02*
Y200000D01*
D55*
X18500Y191792D02*
D03*
X8500D02*
D03*
D56*
X137500Y191500D02*
D03*
X147500D02*
D03*
X157500D02*
D03*
X167500D02*
D03*
X177500D02*
D03*
X187500D02*
D03*
D57*
X42000Y7500D02*
D03*
X170500Y119500D02*
D03*
X129000Y134000D02*
D03*
X153775Y37275D02*
D03*
X181000Y58500D02*
D03*
X93000Y71500D02*
D03*
X60500Y55000D02*
D03*
D58*
X164500Y43500D02*
D03*
M02*
